<svg width="1em" height="1em" viewBox="0 0 99.261 97.684" xml:space="preserve"
    xmlns="http://www.w3.org/2000/svg">
    <path style="display:inline;fill:#f6d2a2;stroke-width:.254" d="M87.749 161.762c-1.721-.614-2.322-1.161-4.344-3.956-.788-1.09-1.02-1.217-4.879-2.68-2.228-.845-4.417-1.731-4.864-1.97-1.209-.64-2.538-2.119-3.22-3.58-.659-1.41-1.882-5.93-2.68-9.903-.509-2.532-.685-2.894-2.674-5.49-.481-.628-1.23-2.08-1.664-3.226-.466-1.23-1.264-2.688-1.949-3.556-1.811-2.301-2.449-3.893-2.572-6.428-.09-1.844-.008-2.445.558-4.083.77-2.23.802-2.754.275-4.447-.972-3.12-1.54-14.68-.865-17.608.142-.616.98-2.56 1.862-4.318.882-1.758 1.808-3.825 2.057-4.593.783-2.416 1.536-3.623 3.97-6.359 5.824-6.548 8.87-9.064 11.525-9.522.559-.096 1.785-.632 2.724-1.19 2.174-1.29 3.236-1.542 5.003-1.187 1.145.23 1.597.498 2.679 1.584.88.883 1.462 1.756 1.798 2.694.331.926.72 1.513 1.169 1.765.621.348.854.316 3.048-.424 1.306-.44 3.712-1.152 5.346-1.582 2.732-.718 3.38-.79 8.092-.89 5.778-.122 6.114-.218 6.616-1.892.783-2.613 2.939-3.898 7.283-4.34 3.177-.322 4.237-.214 6.593.673.882.332 2.087.604 2.677.605 1.563.002 2.866.43 4.611 1.513.849.527 2.743 1.331 4.21 1.788l2.667.83 2.614 2.656c1.437 1.462 3.51 3.322 4.605 4.134 2.635 1.953 3.09 2.889 3.953 8.115.356 2.159.747 4.812.868 5.896.188 1.677.395 2.264 1.383 3.925 1.753 2.945 2.042 5.175 1.039 8.018-.347.982-.242 5.027.319 12.328.093 1.218-.03 2.092-.54 3.824a45.679 45.679 0 0 0-1.046 4.627c-.452 2.798-1.184 4.731-2.629 6.95-.73 1.12-1.594 3.187-2.838 6.793-.984 2.85-2.084 5.697-2.446 6.326-1.13 1.967-3.184 4.3-7.609 8.643-4.557 4.473-6.096 5.541-9.332 6.476-3.587 1.036-6.494-.64-8.449-4.871-.763-1.653-.941-1.866-1.553-1.864-.874.003-2.579.53-4.374 1.351-1.636.749-2.535.856-4.953.589-1.512-.167-2.138-.099-4.19.454-2.838.764-5.431.848-7.238.232l-1.232-.42-.571.665c-.315.366-.708 1.326-.875 2.134-.555 2.694-1.73 4.13-3.91 4.78-1.547.46-4.773.466-6.048.011zm6.833-.89c1.442-.812 2.015-1.674 2.626-3.955.854-3.188 1.39-3.63 3.39-2.794 1.419.592 4.242.481 7.005-.276 2.058-.564 2.646-.628 4.191-.455 2.45.275 3.234.17 5.146-.688 1.95-.874 4.457-1.561 4.975-1.363.204.078.69.96 1.083 1.96 1.248 3.181 3.77 5.273 6.341 5.26 1.074-.006 3.988-1.079 5.627-2.072 1.516-.918 8.758-7.985 10.887-10.621 1.768-2.192 2.397-3.506 4.23-8.841 1.702-4.952 1.818-5.216 3.273-7.468 1.164-1.8 1.842-3.807 2.26-6.684.162-1.115.588-2.926.947-4.027.556-1.706.63-2.284.501-3.937-.083-1.065-.27-4.02-.416-6.567-.251-4.368-.237-4.718.246-6.152.9-2.674.56-4.703-1.258-7.494-.922-1.414-1.077-1.869-1.275-3.732-.324-3.044-1.43-9.612-1.764-10.473-.506-1.306-1.303-2.188-3.308-3.663-1.083-.796-2.688-2.277-3.568-3.29-2.016-2.323-3.363-3.215-6.09-4.032-1.19-.357-2.932-1.107-3.872-1.667-1.81-1.079-3.005-1.46-4.612-1.47-.542-.003-2.028-.364-3.302-.802l-2.316-.797-3.01.293c-4.69.456-6.238 1.345-7.352 4.223-.474 1.223-.713 1.529-1.33 1.701-.415.116-3.018.263-5.784.326-4.593.105-5.29.183-8.001.896-1.634.43-4.023 1.142-5.31 1.584-3.1 1.066-3.451.95-4.646-1.525-.489-1.013-1.217-2.189-1.617-2.612-1.959-2.071-4.635-2.179-7.315-.295-.605.426-1.84.958-2.746 1.184-.904.225-2.161.71-2.794 1.076-1.739 1.01-9.256 8.753-11.019 11.35-.35.517-.825 1.535-1.054 2.263-.23.727-1.295 3.148-2.367 5.378l-1.949 4.056-.085 4.961c-.095 5.576.266 9.976 1.02 12.415.585 1.894.525 3.073-.263 5.177-.657 1.754-.721 4.337-.154 6.246.219.738.956 2.062 1.678 3.017.709.935 1.497 2.164 1.751 2.73l1.204 2.682c.407.908 1.175 2.165 1.707 2.794 1.21 1.431 1.785 2.718 2.157 4.826.42 2.378 1.703 7.394 2.3 8.991.7 1.868 1.787 3.297 3.089 4.057.6.35 2.519 1.16 4.265 1.8 5.024 1.84 5.161 1.923 6.473 3.914 1.797 2.728 3.157 3.374 6.862 3.26 1.842-.058 2.492-.187 3.343-.667zm-4.05-9.034c-1.485-.408-1.96-.778-1.96-1.525 0-.708.44-1.092 1.49-1.302.444-.088.868-.26.943-.382.222-.359 1.543-.253 1.877.15.17.204.368.819.442 1.367.106.79.022 1.108-.404 1.534-.61.61-.717.617-2.388.158zm38.066-3.651c-.407-.088-.784-.29-.837-.448-.155-.468.714-1.157 1.297-1.027.294.065 1.107-.07 1.805-.3 1.081-.355 1.282-.524 1.352-1.131.157-1.366 1.57-1.064 1.57.335 0 1.072-.718 1.69-2.631 2.267-.958.288-1.758.511-1.778.494-.02-.016-.37-.102-.778-.19zm-22.49-2.39c-.828-.419-1.476-2.054-1.028-2.594.365-.44 2.158-.517 3.16-.136.519.197.652.42.652 1.087 0 1.7-1.233 2.428-2.784 1.644zm-17.445-4.886c-.24-.624.407-1.14 1.43-1.14.566 0 1.212-.205 1.597-.507.767-.604 1.036-.63 1.44-.144.461.555-.058 1.286-1.254 1.764-1.326.53-3.015.545-3.213.027zm36.258-4.028c-.423-.51-.094-1.104.689-1.248.375-.068 1.347-.26 2.161-.424 1.27-.256 1.568-.24 2.1.108.507.332.572.496.356.898-.2.375-.436.457-.992.346-.4-.08-1.36.037-2.13.261-1.703.496-1.819.499-2.184.059zm-20.263-.56c-.264-.689.464-1.062 3.14-1.61 3.15-.644 6.12-.713 6.338-.145.305.796-.4 1.14-2.338 1.14-1.022 0-2.808.227-3.97.506-2.554.612-2.97.627-3.17.109zm-17.42-1.132c-.244-.149-.444-.498-.444-.775 0-.968 3.46-1.913 4.932-1.348.727.279.479 1.276-.423 1.699-1.104.518-3.5.768-4.064.424zm-9.804-8.28c-1.063-.544-1.997-1.933-2.211-3.288-.226-1.432.263-1.885 2.035-1.885 1.152 0 1.574-.15 2.867-1.013 2.022-1.35 2.597-1.397 3.19-.257.894 1.717.109 5.382-1.348 6.292-.26.161-1.194.36-2.077.44-1.232.112-1.802.044-2.456-.29zm28.174-5.495c-.863-.438-.998-1.193-1.085-6.023-.082-4.563-.07-4.612 1.3-5.416.77-.452.787-.45 1.39.152 1.044 1.044 1.316 3.008.96 6.938-.168 1.864-.415 3.678-.549 4.03-.272.717-1.005.833-2.016.32zm28.02-2.917c-1.206-.684-2.638-2.434-2.638-3.222 0-.94.433-1.667.993-1.667.257 0 .808.399 1.225.887.907 1.062 2.592 1.726 3.804 1.499.63-.118.988-.042 1.354.29 1.007.91.4 1.595-1.974 2.233-1.939.52-1.811.52-2.764-.02zm1.172-1.18c0-.054-.177-.167-.394-.25-.226-.087-.328-.045-.239.1.15.24.633.356.633.15zm-4.572-4.696c-.953-.27-.894-1.397.08-1.508.88-.101 1.494.371 1.393 1.073-.083.582-.509.707-1.473.435zm-54.296-6.87c-.979-.247-2.822-1.417-3.012-1.913-.074-.191.275-.942.774-1.668.5-.725.908-1.602.908-1.947s.385-1.103.856-1.686c1.493-1.848 1.539-2.048.738-3.259-.542-.82-.696-1.34-.668-2.253.04-1.294.906-2.93 1.685-3.185.248-.08 1.2.04 2.116.27 2.25.564 5.08.595 6.087.066.83-.437 2.412-.273 2.997.31.164.163.358 1.715.455 3.639.093 1.844.25 4.185.352 5.2.157 1.584.118 1.919-.272 2.35-.554.613-.82.62-2.916.084-1.055-.27-1.994-.36-2.597-.246-1.037.194-2.36 1.335-3.03 2.614-.77 1.468-2.541 2.111-4.473 1.624zm55.363-7.18c-.449-.45-.37-1.592.14-2.035.673-.584 2.266-.756 2.728-.293.576.575.468 1.08-.406 1.896-.829.774-1.927.967-2.462.432zm-30.92-.98c-.546-.883.987-2.404 1.866-1.853.848.531.646 1.539-.277 1.387-.109-.018-.264.14-.345.351-.168.44-.997.516-1.245.115zM134.61 94.9c-.175-.07-.318-.459-.318-.863 0-1.182-.722-2.61-1.6-3.165-.866-.546-1.097-1.457-.403-1.59.694-.134 2.254.974 2.755 1.956.658 1.291.878 2.65.533 3.296-.293.546-.41.59-.967.366zm-35.851-.942c-.563-.679.31-1.683 1.463-1.683a.74.74 0 0 0 .662-.485c.21-.662.907-.883 1.36-.431.558.558-.233 2.127-1.173 2.328-.378.08-.95.253-1.271.383-.735.298-.697.302-1.041-.112zm5.418-2.045c-.614-.449-.295-1.224.46-1.117.356.05.601.285.65.62.094.666-.51.936-1.11.497zm28.083-4.591c-.393-.475.066-1.143.784-1.143.515 0 .99.707.812 1.206-.158.44-1.213.398-1.596-.063zm-59.859-2.558c-.213-.557.418-1.633.96-1.633.66 0 .823.44.473 1.285-.337.814-1.175 1.018-1.433.348zm5.3-.414c-.398-.398-.39-1.136.013-1.271.174-.059.925-.06 1.669-.002 1.427.11 1.876.521 1.313 1.2-.383.46-2.554.514-2.995.073zm7.938-.622c-1.11-1.198-.761-3.403.713-4.498.65-.482.733-.49 1.117-.105.385.384.366.474-.257 1.214-.814.967-.859 1.925-.127 2.704.452.48.49.648.223.97-.467.562-.962.478-1.669-.285zm34.267-3.773c-.393-1.024.69-2.4 1.61-2.047.436.167.305 1.466-.21 2.087-.38.458-1.218.434-1.4-.04zM80 79.653c-.43-.165-.402-.963.048-1.337.542-.45 1.771-.233 1.878.332.05.26-.007.559-.124.666-.302.273-1.423.484-1.802.339zm46.807-.992c-1.32-.484-2.365-1.509-2.71-2.659-.352-1.178.052-2.086.878-1.968.456.065.554.246.554 1.024 0 1.24.65 1.863 2.413 2.312.954.243 1.425.498 1.486.805.178.903-.923 1.107-2.621.486zm-43.485-1.014c-.203-.53.762-1.495 1.292-1.292.475.183.53.958.097 1.39-.432.432-1.207.377-1.39-.098zm48.488-.657a1.242 1.242 0 0 1-.312-.763c0-.249-.286-.639-.635-.868-.783-.513-.823-1.28-.079-1.516.842-.267 2.297 1.396 2.19 2.503-.084.868-.635 1.173-1.164.644z" transform="translate(-58.577 -64.416)"/>
    <path style="display:inline;fill:#ec9d36;stroke-width:.254" d="M87.943 158.678c-.929-.484-1.056-.673-1.532-2.271-.55-1.844-1.565-2.384-9.904-5.256-1.733-.597-2.518-1.213-3.173-2.49-.586-1.144-2.23-7.604-2.657-10.441-.372-2.47-1.26-4.277-2.445-4.978-.403-.238-.896-.781-1.094-1.206-.737-1.578-1.097-2.578-1.279-3.55-.136-.727-.629-1.483-1.82-2.793-1.83-2.014-2.225-2.976-2.247-5.48-.014-1.472.086-1.817.93-3.196.872-1.428.933-1.65.792-2.921-.084-.757-.395-1.776-.692-2.264-.57-.942-.748-2.238-1.068-7.804l-.18-3.105.668.31c.851.397.946.656 1.116 3.041.143 2.007.478 2.667 1.208 2.387.302-.116.384-.616.384-2.325 0-2.485-.522-3.882-1.642-4.392-.833-.38-.783-.383-1.26.095-.364.363-.4.172-.396-2.096.002-1.372.115-2.666.25-2.875.202-.313.247-.286.25.15.005.678.841 1.445 1.446 1.328.354-.069.465-.33.472-1.102.013-1.402.703-2.608 1.55-2.709.967-.115 1.386-.887.742-1.365-.882-.655-1.809-.453-2.695.586-.94 1.103-.92 1.043.474-1.333.574-.978 1.23-2.521 1.457-3.43.228-.908.638-2.04.913-2.515 1.2-2.076 9.276-10.38 10.903-11.21.819-.417 1.504-.553 2.665-.528 1.555.034 1.567.029 2.28-1 .87-1.256 1.31-1.51 2.614-1.51 1.374 0 2.417 1.177 2.857 3.222.44 2.054.594 2.282 2.013 3 1.663.843 3.323.841 4.698-.006.559-.344 1.35-.627 1.758-.627.408-.001.941-.181 1.184-.401.243-.22 1.052-.496 1.798-.614.746-.117 2.213-.453 3.261-.746 1.893-.53 3.842-.53 4.85-.002.24.126.9.062 1.627-.156.752-.227 2.313-.369 4.05-.369 2.52 0 2.827.049 2.835.445.004.244.09.688.189.986.158.473.06.565-.77.72-.524.099-1.265.34-1.646.538-.751.388-1.99 1.864-1.99 2.37 0 .212-.127.186-.393-.08-.216-.216-.873-.619-1.46-.895-.588-.276-1.55-.868-2.14-1.316-.894-.68-1.133-.76-1.46-.49-.593.493-.476.896.51 1.762 1.038.912 3.844 2.391 4.161 2.195.119-.073.2.68.18 1.673-.027 1.448.052 1.86.4 2.084.568.366 1.473-.463 2.59-2.372.718-1.225 2.253-2.519 3.009-2.535.966-.022-1.165 2.781-3.331 4.382l-1.401 1.035-1.875-.27c-1.318-.19-2.05-.436-2.469-.829-.859-.807-1.447-.574-1.91.755-.619 1.783-1.953 2.17-4.826 1.4-1.222-.328-1.54-.329-2.54-.007-.628.202-2.229.55-3.556.773-3.485.586-4.2 1.5-2.123 2.717.409.24 1.393.512 2.188.606 1.268.149 1.614.084 2.838-.535l1.393-.706.936.822c.926.813.961.821 3.123.723 1.532-.069 2.528-.259 3.33-.636 1.204-.566 2.222-.745 6.01-1.056 2.317-.19 2.596-.297 3.959-1.53l.698-.632V89.225h-1.012c-.946 0-1.961.4-6.31 2.483-.744.356-1.517.886-1.719 1.178-.201.292-.821 1.156-1.378 1.92-1.28 1.762-1.341 2.732-.23 3.668.43.362 1.088.739 1.461.838.91.242 3.908.225 7.093-.04l2.603-.217-.009 1.372c-.009 1.333-.04 1.39-1.08 2.04-1.755 1.097-3.114 1.717-4.387 2.002-2.502.56-5.213 3.424-3.767 3.98.225.085.682.41 1.017.72.334.31 1.454.871 2.488 1.249 1.034.377 2.078.904 2.32 1.17.24.267.908.725 1.484 1.02.575.293 1.422.803 1.883 1.131.46.33.933.634 1.049.679.116.044.035 1.768-.18 3.83l-.39 3.751.611.655c.925.988 1.32 1.129 4.255 1.511 2.261.295 2.786.448 3.181.931l.474.578-1.652.303c-2.45.448-3.333.894-3.824 1.927-.233.492-.426 1.278-.428 1.746-.004.804-.103.898-1.842 1.727-1.01.483-1.952.865-2.092.85-.14-.016-1.168-.266-2.286-.556-3.248-.844-5.868-.647-11.038.829-1.286.367-1.423.364-1.873-.04-.744-.668-2.582-3.123-3.083-4.119a8.133 8.133 0 0 0-1.096-1.583c-.643-.687-.645-.699-.161-1.237.268-.299 1.092-.83 1.83-1.182 1.578-.75 2.613-1.912 3.375-3.79.452-1.114.492-1.423.225-1.745-.564-.68-1.07-.293-2.003 1.536-.8 1.567-1.062 1.854-2.204 2.413-.713.35-1.459.77-1.657.936-.222.186-.774.246-1.434.157l-1.074-.143v-2.613c0-1.437-.069-2.794-.154-3.015-.115-.3.007-.402.486-.402.617 0 1.954-1.24 1.954-1.813 0-.138.24-.809.533-1.49.436-1.012.68-1.27 1.334-1.412 1.772-.382 2.732-.946 3.493-2.052 1.089-1.583.964-2.583-.407-3.255-.868-.426-1.568-.5-4.81-.508l-3.795-.01-.456-3.557c-1.065-8.314-1.22-10.118-1.22-14.097.002-4.694.107-5.45.726-5.19 1.209.506 2.869.416 4.706-.254 2.102-.766 3.576-1.896 4.612-3.532.616-.975.847-1.13 1.968-1.334 1.49-.27 2.106-.941 1.368-1.49-.288-.214-.826-.29-1.452-.206-1.269.17-3.265-.327-3.973-.989-.67-.626-1.456-.525-1.56.2-.087.605 1.137 1.78 2.106 2.023l.594.149-.518.878c-1.261 2.138-5.152 3.76-7.165 2.987-1.092-.419.174-1.888 2.48-2.877.62-.265 1.206-.611 1.303-.769.249-.402-.335-1.026-.96-1.026-.837 0-2.683 1.005-3.8 2.068-.567.54-1.07.98-1.117.98-.047 0-.086-.39-.086-.865 0-.65-.287-1.22-1.156-2.286-.637-.781-1.257-1.42-1.38-1.42-.121 0-.4.179-.62.398-.455.456-.349.739.846 2.24.433.543.786 1.129.786 1.302 0 .519-.72.955-1.318.799-.66-.172-1.222.22-1.222.852 0 .942 2.29 1.073 3.263.187.582-.53.614-.534.426-.064-.112.28-.258 1.507-.326 2.728l-.122 2.22-.668-.15c-.367-.082-1.239-.502-1.938-.934-1.023-.633-1.614-.805-3.048-.888-1.646-.095-1.907-.035-3.528.81-.963.503-1.849.913-1.968.913-.12 0-.791-.412-1.493-.916l-1.275-.916.03-2.539.032-2.539 1.498-1.498 1.497-1.498h1.982c1.225 0 2.117-.12 2.337-.317.302-.27.306-.251.022.124-.678.897.393 1.67 1.236.892.203-.188.178-.07-.062.29-.512.766-3.536 2.06-4.817 2.06-1.055 0-1.484.515-1.03 1.24.444.71 1.786.626 3.982-.249 2.092-.833 2.864-1.455 3.907-3.147.66-1.072.709-1.478.223-1.882-.475-.394-1.116-.104-1.554.702-.272.502-.366.555-.373.216-.006-.249-.182-.518-.392-.599-.21-.08-.38-.369-.38-.642 0-.272.097-.435.216-.362.47.29 1.093-.492.925-1.16-.324-1.292-2.703-1.73-2.874-.53-.045.315.07.618.254.674 1.368.414 1.374.439.212.836-.791.27-1.596.343-2.63.234-1.722-.18-2.614.202-3.338 1.427-.245.415-.814.971-1.264 1.237-.79.466-1.408 1.398-1.408 2.123 0 .192-.542.533-1.206.758-1.444.49-1.857.785-2.85 2.036-.603.758-.705 1.05-.5 1.433.373.699.791.596 1.776-.439.77-.808 2.129-1.621 2.709-1.62.11 0 .19.745.18 1.655-.02 1.652-.021 1.656-1.064 2.332-.793.514-1.23 1.083-1.822 2.365-.428.93-.78 1.908-.782 2.177-.008 1.001-.413 1.195-.758.362-.395-.953-1.829-2.11-2.465-1.988-.714.136-.714 1.127 0 1.595.338.221.807.83 1.043 1.353.406.9.404 1.031-.05 2.488-.263.845-.954 2.238-1.535 3.094-.582.856-1.058 1.711-1.058 1.9 0 .47.521.954 1.026.954.597 0 1.006 1.08 1.006 2.657 0 1.562-1.234 5.627-2.124 6.995-1.21 1.862-1.038 2.292 1.17 2.922 2.897.825 3.014 2.999.285 5.295-.438.368-1.216 1.553-1.729 2.634-.88 1.851-.921 2.051-.728 3.494.19 1.408.256 1.53.84 1.53.602 0 .64-.083.711-1.59.071-1.488.107-1.572.572-1.324.662.355.66 1.963-.006 3.955-.276.825-.505 1.635-.508 1.8-.01.47 1.02.69 1.397.297.547-.568 1.137-3 1.137-4.688 0-1.32-.107-1.712-.635-2.34-.926-1.1-.825-1.841.382-2.811.56-.45 1.26-1.298 1.555-1.884.296-.587.57-1.103.61-1.148.038-.044.51.14 1.047.409 1.779.89 2.215.887 5.114-.046 1.497-.482 3.35-1.013 4.119-1.181 1.332-.292 3.035-1.11 3.059-1.47.006-.094.51-.727 1.119-1.406 1.01-1.127 1.283-1.278 3.1-1.713 3.189-.763 3.036-.846 3.208 1.742.081 1.222.392 2.965.69 3.873.582 1.774.94 5.704.656 7.213-.129.687-.298.915-.676.915-1.155 0-2.916 1.216-3.998 2.757-1.136 1.62-1.167 1.635-3.983 1.877-.622.053-.762.18-.762.689 0 .757.597.966 2.862 1.002.986.016 2.284.267 3.41.66 1 .35 2.245.635 2.768.635.895 0 .976.068 1.395 1.163.325.852.38 1.344.206 1.842-.212.607-.398.694-1.756.825-2.007.193-4.615.901-5.854 1.59-.573.318-1.37 1.116-1.865 1.868l-.865 1.313-1.294-.724c-.894-.5-1.748-1.32-2.766-2.653-2.364-3.097-5.016-4.881-6.262-4.214-.555.297-.67.767-.286 1.162.141.145.146.698.011 1.384-.347 1.774-.284 4.604.133 6.01.47 1.585 3.383 4.982 6.195 7.227 1.875 1.496 1.954 1.531 3.073 1.365.632-.094 1.291-.289 1.466-.432.432-.356.409-3.094-.033-3.959a7.498 7.498 0 0 1-.53-1.52c-.161-.75-.076-.931.832-1.778.557-.519 1.254-1.428 1.55-2.02.63-1.26 1.543-1.794 4.407-2.576 2.532-.692 3.266-.683 3.953.05.684.727.685.915.013 2.476l-.54 1.253-1.936.002c-2.552.002-3.693.349-4.923 1.497-.878.819-1.035 1.13-1.145 2.282-.163 1.693.216 2.42 1.455 2.791 1.39.417 1.842.36 2.803-.348 1.173-.866 2.082-.824 2.888.134 1.212 1.44 1.181 3.334-.078 4.842-.717.859-.741.866-2.846.866-2.008 0-2.128.031-2.205.571-.06.422.094.638.588.826.932.354 3.684.311 4.435-.069.95-.481 2.247-2.347 2.69-3.871.29-.996.497-1.329.765-1.226.844.324-.043 2.745-1.512 4.125-.59.554-.6.619-.24 1.478.472 1.13.1 2.206-.953 2.75-.993.513-4.682.495-5.686-.028zm4.977-6.998c.426-.426.51-.744.404-1.534-.074-.548-.273-1.163-.442-1.367-.334-.403-1.655-.509-1.877-.15-.075.121-.5.294-.943.382-1.05.21-1.49.594-1.49 1.302 0 .747.475 1.117 1.96 1.525 1.67.46 1.777.452 2.388-.158zm-1.044-10.796c1.196-.478 1.715-1.209 1.255-1.764-.405-.487-.674-.46-1.441.144-.385.302-1.03.508-1.597.508-1.023 0-1.67.515-1.43 1.14.198.517 1.887.503 3.213-.028zm-.573-6.117c.902-.423 1.15-1.42.423-1.7-1.472-.564-4.932.381-4.932 1.349 0 .277.2.626.445.775.564.344 2.96.094 4.064-.424zm-9.12-5.009c2.197-1.113 3.7-3.243 4.873-6.909.644-2.01.555-2.715-.324-2.59-.459.065-.679.41-1.105 1.733-.812 2.517-2.011 4.686-3.078 5.568-1.428 1.182-2.508 1.425-4.975 1.122-2.478-.304-2.77-.234-2.668.643.095.817.696.976 3.832 1.018 1.894.026 2.414-.062 3.445-.585zm28.81-.61c2.756-1.251 3.741-1.988 3.741-2.797 0-.883-.728-1.564-2.413-2.26-1.234-.509-3.894-1.282-5.233-1.52-.991-.177-3.03.978-4.383 2.482-1.498 1.666-1.526 2.29-.146 3.202 2.643 1.75 5.808 2.084 8.434.893zm-29.026-2.388c1.457-.91 2.242-4.575 1.348-6.292-.35-.673-.605-.874-1.049-.826-.468.05-.556-.032-.436-.409a.776.776 0 0 0-.252-.805c-.337-.28-.592-.237-1.593.266-.888.446-1.634.602-2.924.614-1.32.013-1.787.114-1.962.427-.164.292-.089.54.26.855.394.356.832.424 2.217.343.949-.056 2.097-.289 2.55-.518 1.205-.608 1.01-.307-.367.566-.931.591-1.483.757-2.521.757-1.75 0-2.24.458-2.015 1.885.214 1.355 1.148 2.744 2.211 3.287.654.334 1.224.401 2.456.29.883-.08 1.818-.279 2.077-.44zm25.657-5.663c.134-.352.381-2.166.55-4.03.355-3.93.083-5.894-.961-6.938-.603-.602-.62-.604-1.39-.152-1.37.804-1.382.853-1.3 5.416.042 2.333.164 4.571.272 4.975.36 1.35 2.394 1.874 2.83.73zm-6.005-23.619c.08-.21.236-.369.345-.35.923.15 1.125-.857.277-1.388-.88-.551-2.412.97-1.867 1.853.248.4 1.077.324 1.245-.115zm-1.82-3.409c.322-.13.894-.302 1.272-.383.94-.2 1.73-1.77 1.172-2.328-.452-.452-1.149-.231-1.36.431a.74.74 0 0 1-.66.485c-1.154 0-2.027 1.004-1.464 1.683.344.414.306.41 1.04.112zm5.487-2.653c-.048-.336-.293-.57-.65-.62-.754-.108-1.073.667-.46 1.116.601.439 1.205.169 1.11-.496zm-37.69-3.36c.232-.09.402-.45.402-.855 0-.386.229-.992.508-1.347.6-.763.644-1.28.143-1.695-.558-.464-1.374.1-1.937 1.34-.59 1.299-.61 1.795-.093 2.311.456.456.44.452.977.245zm6.238-3.641c.35-.845.187-1.285-.474-1.285-.54 0-1.172 1.076-.959 1.633.258.67 1.096.466 1.433-.348zm6.862-.14c.563-.678.114-1.088-1.313-1.199-.744-.057-1.495-.057-1.67.002-.403.135-.41.873-.012 1.27.441.442 2.612.389 2.995-.072zm6.612-.264c.267-.321.229-.489-.223-.969-.732-.779-.687-1.737.127-2.704.623-.74.642-.83.257-1.214-.384-.385-.467-.377-1.117.105-1.474 1.095-1.824 3.3-.713 4.498.707.763 1.202.847 1.67.284zm17.432-1.008c.933-.974 1.243-1.143 2.089-1.143 1.892 0 1.512-1.568-.39-1.61-1.178-.026-2.186.594-3.165 1.946-.565.78-.664 1.094-.462 1.47.381.714.72.597 1.928-.663zm-22.938-3.69c.117-.106.174-.406.124-.665-.107-.565-1.336-.782-1.878-.332-.45.374-.479 1.172-.048 1.337.379.145 1.5-.066 1.802-.34zm45.96 76.473c-1.226-.753-2.101-2.287-2.852-4.999l-.676-2.442.711-.711c.64-.64.711-.885.711-2.445v-1.734l3.003.088 3.003.09.78-.78c1.855-1.855 1.521-3.348-1.027-4.603-1.618-.796-1.71-.81-4.025-.64-3.031.222-3.766-.02-3.766-1.242 0-.766.103-.906.826-1.127 1.568-.479 4.135-.832 6.413-.88 2-.044 2.419.026 3.347.557.658.377 1.123.855 1.224 1.255.09.356.498 1.071.908 1.589 1.717 2.168 2.325 5.27 1.295 6.61-.895 1.166-1.636 2.727-1.483 3.126.229.595 1.02.487 1.639-.224.299-.345 1.091-.913 1.76-1.264 1.535-.805 1.905-1.134 3.742-3.318.823-.977 1.771-2.037 2.108-2.354.469-.443.575-.741.457-1.281-.085-.387.012-1.442.215-2.344.203-.902.45-3.315.546-5.362.17-3.59.158-3.732-.347-4.002-.642-.344-1.74.081-1.954.756-.198.622-1.121 1.76-1.429 1.76-.14 0-.02-.297.266-.66.286-.364.596-1.078.69-1.588.093-.51.325-1.152.514-1.428.554-.804.429-2.389-.26-3.293-.334-.436-.648-1.01-.699-1.275-.145-.75-1.472-1.002-2.25-.427-1.132.837-1.91 2.736-1.886 4.604.026 2.095.525 3.076 1.938 3.806l1.09.562-1.626-.15c-.894-.083-1.763-.266-1.933-.406-.17-.141-1.2-.512-2.29-.826l-1.98-.57-.54-2.032c-.848-3.203-1.399-3.97-3.76-5.24-1.318-.71-2.412-1.534-3.14-2.367-.947-1.082-1.186-1.234-1.561-.99-1.143.742.672 3.093 3.494 4.527.908.462 1.841 1.052 2.074 1.312.454.507 1.482 3.338 1.483 4.084.002.845.96 2.05 1.901 2.391.74.268.895.435.784.848-.077.284-.14.995-.142 1.582l-.003 1.067-.946-.396c-.77-.321-1.539-.363-4.128-.225-1.75.094-3.524.268-3.943.387-.42.12-1.162.283-1.651.364l-.89.148-.487-2.07c-.43-1.82-.445-2.145-.127-2.709.384-.681 1.59-1.168 3.54-1.43.63-.084 1.475-.414 1.876-.734.728-.58.728-.581.301-1.48-.789-1.664-1.62-2.213-3.977-2.628-1.178-.207-2.443-.377-2.812-.377-.368 0-.906-.2-1.193-.445-.512-.435-.516-.505-.161-3.112.453-3.333.456-6.21.009-8.509-.19-.977-.32-1.806-.288-1.84.032-.034 1.763-.091 3.848-.126l3.79-.064 2.159 1.06 2.159 1.062 1.524-.517c1.894-.643 4.15-.524 5.233.278.998.738 2.452.715 2.754-.043.125-.314.585-.9 1.02-1.302 1.742-1.604 2.123-3.326 1.393-6.297-.528-2.149-1.533-3.086-3.758-3.506-1.487-.28-1.726-.255-3.71.4-2.08.688-4 1.792-5.425 3.118-.675.628-.845.662-2.985.602-3.215-.09-4.958-.09-6.75.002l-1.56.08-.15-2.55c-.083-1.401-.225-5.492-.316-9.09l-.166-6.54h.904c.941 0 2.467-1.01 2.467-1.634 0-.952 2.223-1.768 2.991-1.098.24.21 1.156.46 2.034.555 1.476.16 1.699.114 2.952-.603 1.83-1.047 2.294-.999 3.567.367.83.892 1.256 1.152 1.935 1.183 1.435.065 2.119-.057 2.561-.456.516-.466.589-.35.978 1.56.172.838.484 1.866.695 2.285.589 1.17 2.089 2.921 2.501 2.921.284 0 .217.3-.292 1.303-.909 1.794-.912 3.065-.012 4.793.4.769.942 1.701 1.205 2.073.632.896 4.208 3.261 4.93 3.261.47 0 .879-.42.879-.905 0-.056-.943-.732-2.096-1.503-1.708-1.142-2.273-1.694-3.059-2.989-.836-1.377-.942-1.722-.801-2.603.22-1.372 1.282-3.175 1.871-3.175.6 0 1.088-.588.898-1.081-.098-.256-.617-.422-1.566-.5-1.235-.103-1.512-.23-2.14-.984-.397-.475-.84-1.322-.985-1.88a63.811 63.811 0 0 0-.718-2.469c-.383-1.221-.4-1.507-.112-1.796.529-.529.129-1.196-.717-1.196-.487 0-1.077.31-1.753.92-1.31 1.183-2.103 1.067-3.636-.533-1.362-1.422-2.237-1.5-4.323-.387-1.603.855-3.438 1.03-3.977.38-.401-.482-2.267-.501-3.386-.034-.456.19-1.14.733-1.52 1.206-.38.473-.807 1.003-.95 1.178-.668.815-1.152.043-1.5-2.393a60.917 60.917 0 0 0-.415-2.56l-.167-.826h1.056c1.958 0 3.704-1.149 3.537-2.328-.121-.851-1.042-.913-1.57-.106-.32.488-.72.679-1.695.808-.702.093-1.344.28-1.428.415-.349.565-.979-2.3-.972-4.422.01-2.538.252-2.974 2.035-3.655.899-.343 1.25-.364 1.996-.118.752.248 1 .231 1.474-.1.681-.477 2.682-.526 3.683-.09.391.17 1.132.58 1.647.912.85.548 1.107.587 2.799.428l1.862-.174 1.398 1.15c1.23 1.013 1.733 1.234 4.186 1.838 2.747.676 2.81.708 4.147 2.112.747.784 1.676 1.883 2.064 2.441.428.616 1.613 1.605 3.01 2.511 1.266.822 2.379 1.68 2.472 1.905.094.226.263 1.21.377 2.188.113.978.458 3.15.766 4.826.614 3.34.714 4.664.442 5.88-.163.727-.09.858.8 1.447 1.232.816 2.338 2.963 2.362 4.587.017 1.1-.21 1.58-1.708 3.611-.166.226-.136.613.09 1.17 1.03 2.525 1.09 2.878 1.038 6.038-.032 1.95.07 3.595.266 4.263.296 1.013.262 1.226-.491 3.134a17.72 17.72 0 0 0-1.058 4.238c-.137 1.206-.322 2.481-.41 2.835-.333 1.333-1.316 3.206-2.004 3.818l-.713.635.432-.69c.651-1.04.59-3.872-.11-5.025-.619-1.021-.979-1.312-1.424-1.149-.183.067-.38-.174-.471-.574-.086-.38-.448-1.59-.803-2.692-.356-1.1-.658-2.289-.672-2.64-.055-1.395-1.432-1.317-1.788.102-.09.355-.45.893-.803 1.196-.89.766-.969 1.874-.183 2.602.34.315.909 1.156 1.264 1.869.73 1.464 1.353 1.91 2.383 1.704.559-.112.793-.012 1.112.473.514.786.517 2.47.006 3.458-.424.82-.173 1.493.555 1.493.192 0 .35.115.35.254 0 .14-.115.254-.255.254s-.254.404-.254.897-.301 1.608-.67 2.477c-.369.869-1.047 2.797-1.507 4.286-1.475 4.776-2.24 5.85-8.66 12.166-3.91 3.845-4.45 4.284-6.308 5.123-2.724 1.23-3.365 1.336-4.37.718zm1.794-4.18c1.138-.336 2.584-.683 3.212-.772 2.151-.303 3.048-.637 3.048-1.135 0-.62-.65-1.135-1.176-.933-.232.089-1.176.27-2.099.404-.923.133-2.582.531-3.687.885-1.105.353-2.063.588-2.129.522-.066-.066-.333-.005-.594.134-.466.25-.639 1.004-.305 1.337.325.325 1.677.165 3.73-.442zm1.598-3.723c1.913-.577 2.63-1.195 2.63-2.267 0-1.399-1.412-1.7-1.569-.335-.07.607-.27.776-1.352 1.131-.698.23-1.51.365-1.805.3-.583-.13-1.452.559-1.297 1.027.053.158.43.36.837.448.408.088.758.174.778.19.02.017.82-.206 1.778-.494zm-4.048-11.059c.77-.224 1.728-.341 2.13-.261.555.111.79.029.991-.346.216-.402.15-.566-.356-.898-.532-.349-.83-.364-2.1-.108-.814.165-1.786.355-2.161.424-.783.144-1.112.739-.69 1.248.366.44.482.436 2.186-.059zm23.688-16.474c.534-.643.635-3.235.162-4.15-.41-.791-1.388-1.275-1.917-.948-.403.248-.324 1.044.142 1.43.327.272.386.667.285 1.917-.124 1.549.07 2.123.72 2.123.165 0 .439-.168.608-.372zm-14.402-1.831c2.375-.638 2.98-1.323 1.974-2.233-.366-.332-.724-.408-1.354-.29-1.212.227-2.897-.437-3.804-1.499-.846-.99-1.56-1.135-1.955-.396-.497.93-.293 1.826.664 2.907.85.96 2.208 1.936 2.693 1.936.109 0 .91-.192 1.782-.425zm-2.225-1.35c-.089-.145.013-.187.239-.1.44.168.52.35.155.35-.131 0-.309-.112-.394-.25zm3.808-3.042c0-.535-.194-.685-1.322-1.025-.727-.22-1.61-.669-1.96-.999-.531-.498-.706-.545-1.028-.278-.925.768.017 2.073 1.934 2.68 1.621.515 2.376.394 2.376-.378zm-6.274-1.94c.1-.7-.513-1.173-1.394-1.072-.566.065-.714.21-.714.705 0 1.025 1.964 1.368 2.108.368zm19.29.37c.161-.16.232-.645.16-1.08-.166-.983-.873-2.693-1.114-2.693-.098 0-.712-.47-1.362-1.042-1.205-1.06-1.795-1.148-2.115-.313-.122.318.221.783 1.275 1.726.92.822 1.443 1.491 1.443 1.845 0 1.405.977 2.293 1.714 1.556zM133.758 98.14c.874-.816.982-1.32.406-1.896-.462-.463-2.055-.291-2.728.293-.51.443-.589 1.586-.14 2.035.535.535 1.633.342 2.462-.432zm16.135-2.392c.787-.575.403-1.28-.81-1.488-1.43-.244-1.582-.362-1.582-1.226 0-.858.79-1.523 1.808-1.523.392 0 .745-.175.836-.414.445-1.159-1.708-1.518-3.178-.53-.815.549-.867.67-.937 2.232-.065 1.45-.003 1.716.508 2.181 1.063.967 2.601 1.32 3.355.768zm-20.64-.833c.093-.058.246-.556.34-1.107.339-2.01-.785-3.053-4.152-3.851-3.074-.73-4.102-.578-4.102.603 0 1.166 3.09 3.878 5.092 4.47.782.232 2.365.167 2.822-.115zm6.325-.383c.345-.646.125-2.005-.533-3.296-.501-.982-2.061-2.09-2.755-1.956-.694.133-.463 1.044.403 1.59.878.554 1.6 1.983 1.6 3.165 0 .653.238.948.817 1.011.1.011.31-.22.468-.514zm13.292-5.443c1.048-1.047.839-3.898-.426-5.802-1.5-2.261-4.249-3.685-4.446-2.304-.056.386.258.737 1.206 1.352.771.5 1.548 1.285 1.951 1.974.603 1.027.656 1.319.526 2.87-.178 2.118.267 2.833 1.19 1.91zm-15.013-1.706c.179-.5-.297-1.206-.812-1.206-.718 0-1.177.668-.784 1.143.383.461 1.438.503 1.596.063zm-12.55-7.39c.515-.62.646-1.92.21-2.087-.92-.353-2.003 1.023-1.61 2.047.182.474 1.02.498 1.4.04zm21.22.187c.526-.201.547-2.385.033-3.378-.436-.844-1.17-1.18-3.568-1.636-1.63-.31-2.623-.706-3.712-1.48-.552-.392-1.24-.09-1.24.543 0 .59 1.645 1.885 2.877 2.262.443.136 1.435.318 2.204.405 1.836.207 2.042.364 2.21 1.687.079.614.256 1.26.394 1.434.29.368.277.365.802.163zm-13.352-1.34c.73-.463.19-1.11-1.232-1.471-1.763-.45-2.413-1.071-2.413-2.312 0-.778-.098-.96-.554-1.024-1.38-.197-1.305 2.218.112 3.576 1.132 1.084 3.291 1.735 4.087 1.23zm3.8-2.495c.107-1.107-1.348-2.77-2.19-2.503-.744.237-.704 1.003.08 1.516.349.229.634.62.634.868 0 1.248 1.356 1.357 1.476.119zm-4.669.288c.22-.22.4-.716.4-1.105 0-1.09.498-2.268 1.033-2.438.266-.084.81-.481 1.212-.882.5-.5 1.038-.754 1.718-.81.792-.064 1.005-.19 1.068-.635.19-1.328-2.259-1.405-3.613-.114-.431.411-1.006.787-1.278.836-.724.13-1.415 1.496-1.676 3.316-.197 1.367-.17 1.642.193 1.914.523.392.464.397.943-.082zm-6.068-4.032.622-.622 1.45.498c1.302.448 1.488.46 1.838.11.557-.557.095-1.17-1.28-1.7-1.768-.682-2.734-.59-3.707.353-.795.771-1.042 1.44-.668 1.813.352.353 1.146.147 1.745-.452zm-13.98 74.807c-1.536-.095-3.104-.325-3.483-.513-.715-.352-2.836-2.714-3.97-4.42-.482-.726-.65-1.313-.655-2.285-.009-2.06.357-4.169.823-4.74.45-.551 3.766-1.605 7.636-2.427 1.834-.39 2.38-.41 3.937-.148 3.876.652 7.251 2.076 7.901 3.334.215.414.674 1.173 1.022 1.685.387.57.632 1.29.632 1.854 0 .827-.284 1.22-2.736 3.784-2.525 2.639-2.857 2.898-4.308 3.35-2.034.632-3.38.737-6.799.526zm.24-1.852c.217-.31.395-.942.395-1.403 0-.984-.63-1.334-2.398-1.334-1.487 0-1.851.455-1.372 1.714.588 1.546 2.585 2.151 3.375 1.023zm-4.435-5.656c.402-.208 1.625-.664 2.717-1.013 1.74-.555 2.446-.634 5.684-.637 3.894-.003 4.704-.207 4.521-1.135-.082-.421-.46-.472-4.11-.548-3.907-.082-4.09-.062-6.467.7-3.383 1.083-4.299 1.693-3.838 2.553.298.557.544.57 1.493.08zm3.767-3.687c1.161-.279 2.947-.506 3.97-.506 1.938 0 2.642-.344 2.337-1.14-.218-.568-3.188-.5-6.338.145-2.676.548-3.404.921-3.14 1.61.2.518.616.503 3.17-.11zm-38.153-23.591c-.238-.263-.916-.614-1.507-.78l-1.074-.3.81-1.669c1.962-4.039 2.216-9.447.49-10.413-.296-.166-.2-.465.517-1.6.985-1.562 1.626-3.451 1.626-4.795 0-.695.068-.826.305-.59.635.635 1.19.343 1.472-.774.819-3.24 1.935-4.682 3.38-4.365.423.093 1.122.384 1.553.647 1.169.713 2.443.611 3.93-.314 1.134-.704 1.442-.781 2.748-.685.89.065 2.058.386 2.96.814.818.388 1.875.768 2.349.845l.861.14v2.99c0 2.795.435 7.518 1.016 11.04.475 2.882.56 2.76-1.76 2.557-2.227-.194-2.94.025-4.082 1.254-.779.838-1.813 1.396-2.59 1.398-.322 0-1.69-.245-3.041-.546-2.323-.517-2.597-.527-5.053-.191-1.918.262-2.67.47-2.874.794-.21.336-.182.534.119.835.339.34.652.355 2.207.114.997-.155 2.132-.243 2.522-.197.715.085.428.2-3.17 1.271-1.094.326-2.2 1.277-2.596 2.231-.37.896-.531.937-1.118.289zm9.66-7.267c.357-.234.838-.787 1.069-1.227.67-1.28 1.993-2.42 3.03-2.614.603-.113 1.542-.024 2.597.246 2.095.537 2.362.529 2.916-.084.39-.431.43-.766.272-2.35-.101-1.015-.26-3.356-.352-5.2-.097-1.924-.29-3.476-.455-3.64-.585-.582-2.167-.746-2.997-.31-1.006.53-3.837.5-6.087-.065-.915-.23-1.868-.35-2.116-.27-.779.255-1.644 1.89-1.685 3.185-.028.913.126 1.433.668 2.253.8 1.21.755 1.41-.738 3.26-.47.582-.856 1.34-.856 1.685s-.408 1.222-.908 1.947c-.5.726-.848 1.477-.774 1.668.19.496 2.033 1.666 3.012 1.913 1.138.287 2.624.113 3.403-.397z" transform="translate(-58.577 -64.416)"/>
    <path style="display:inline;fill:#a26e2a;stroke-width:.254" d="M87.932 161.276c-1.624-.532-2.316-1.115-3.555-2.996-1.312-1.99-1.449-2.073-6.473-3.914-1.746-.64-3.665-1.45-4.265-1.8-1.302-.76-2.39-2.189-3.088-4.057-.598-1.597-1.881-6.613-2.3-8.991-.373-2.108-.948-3.395-2.158-4.826-.532-.63-1.3-1.886-1.707-2.794-.407-.909-.949-2.115-1.204-2.681-.254-.567-1.042-1.796-1.75-2.731-.723-.955-1.46-2.28-1.68-3.017-.566-1.909-.502-4.492.155-6.246.788-2.104.848-3.283.263-5.177-.754-2.439-1.115-6.84-1.02-12.415l.085-4.96 1.95-4.057c1.071-2.23 2.136-4.65 2.366-5.378.23-.728.704-1.746 1.054-2.263 1.763-2.597 9.28-10.34 11.02-11.35.632-.366 1.889-.851 2.793-1.076.905-.226 2.14-.758 2.746-1.184 2.68-1.884 5.356-1.776 7.315.295.4.423 1.128 1.6 1.617 2.612 1.195 2.476 1.545 2.59 4.646 1.525 1.287-.442 3.676-1.155 5.31-1.584 2.711-.713 3.408-.79 8-.896 2.767-.063 5.37-.21 5.784-.326.618-.172.857-.478 1.33-1.701 1.115-2.878 2.663-3.767 7.353-4.223l3.01-.293 2.316.797c1.274.438 2.76.8 3.302.803 1.607.01 2.802.39 4.612 1.469.94.56 2.682 1.31 3.873 1.667 2.726.817 4.073 1.71 6.089 4.032.88 1.013 2.485 2.494 3.568 3.29 2.005 1.475 2.802 2.357 3.308 3.663.334.86 1.44 7.43 1.764 10.473.198 1.863.353 2.318 1.275 3.732 1.818 2.791 2.159 4.82 1.258 7.494-.483 1.434-.497 1.784-.246 6.152.146 2.547.333 5.502.416 6.567.129 1.653.055 2.231-.501 3.937-.359 1.1-.785 2.912-.947 4.027-.418 2.877-1.096 4.884-2.26 6.684-1.455 2.252-1.57 2.516-3.273 7.468-1.833 5.335-2.462 6.65-4.23 8.84-2.129 2.637-9.371 9.704-10.887 10.622-1.639.993-4.553 2.066-5.627 2.072-2.57.013-5.093-2.079-6.34-5.26-.393-1-.88-1.882-1.084-1.96-.518-.198-3.025.489-4.975 1.363-1.912.858-2.696.963-5.146.688-1.545-.173-2.133-.11-4.191.455-2.763.757-5.586.868-7.005.276-2-.836-2.536-.394-3.39 2.794-.933 3.48-2.258 4.507-5.969 4.622-1.396.044-2.683-.059-3.307-.263zm6.058-.515c1.352-.565 2.336-1.927 2.82-3.903.47-1.92 1.18-3.296 1.824-3.544.223-.085 1.202.105 2.175.424 2.104.69 3.538.612 7.226-.393 2.167-.59 2.534-.624 3.834-.354 1.803.374 3.102.2 4.999-.667.819-.375 2.3-.89 3.29-1.145 1.657-.427 1.835-.431 2.252-.054.249.225.452.534.452.687 0 .623 1.611 3.637 2.366 4.428 2.122 2.223 4.43 2.389 8.191.587 2.16-1.035 2.51-1.328 7.26-6.087 6.578-6.59 6.565-6.57 9.608-15.413.72-2.096 1.69-4.382 2.156-5.08 1.71-2.57 2.285-4.092 2.827-7.486.213-1.331.682-3.372 1.043-4.535.62-1.994.64-2.233.367-4.19-.16-1.143-.29-3.075-.29-4.295 0-1.22-.135-3.007-.3-3.971-.276-1.609-.255-1.872.254-3.202.619-1.618.729-3.87.256-5.24-.164-.475-.793-1.66-1.397-2.635-.735-1.185-1.099-2.058-1.099-2.638 0-.477-.355-3.108-.79-5.849-.996-6.287-1.264-6.854-4.29-9.077-1.187-.872-2.787-2.334-3.556-3.25-1.897-2.26-3.211-3.146-5.921-3.996-1.265-.396-3.095-1.194-4.069-1.772-1.508-.896-2.083-1.085-3.902-1.285-1.173-.13-2.67-.47-3.328-.758-1.53-.67-3.873-.84-6.87-.5-3.507.398-5.085 1.465-5.879 3.973-.54 1.707-.726 1.805-3.88 2.04-1.57.117-3.997.186-5.394.153-2.205-.053-2.992.057-5.969.832-1.886.49-4.44 1.244-5.677 1.673-1.37.476-2.461.716-2.794.615-.926-.28-1.653-1.139-2.098-2.478-.555-1.671-2.453-3.619-3.767-3.865-1.413-.265-2.617.029-4.252 1.037-.815.503-2.298 1.141-3.295 1.417-3.016.836-4.704 2.247-10.766 9-2.702 3.01-3.12 3.639-3.839 5.79-.335 1-1.349 3.305-2.253 5.122-.904 1.816-1.758 3.917-1.898 4.67-.65 3.495-.05 13.175 1.048 16.88l.59 1.99-.7 1.98c-1.55 4.374-1.117 7.019 1.748 10.675.609.777 1.446 2.32 1.887 3.477.436 1.144 1.129 2.516 1.539 3.048l1.495 1.94c.508.66.882 1.6 1.163 2.922 1.534 7.22 2.363 10.04 3.461 11.774.998 1.574 2.453 2.455 6.419 3.885 4.013 1.446 5.066 1.97 5.657 2.814 2.132 3.046 2.704 3.557 4.564 4.081 1.416.399 4.256.269 5.502-.252zm-4.084-1.616a11.058 11.058 0 0 1 1.905 0c.524.054.095.1-.953.1s-1.476-.046-.952-.1zm4.652-1.414c.095-.25.237-.391.315-.313.078.078 0 .283-.173.455-.251.25-.28.22-.142-.142zm34.86-1.623c.184-.073.403-.064.487.02.085.084-.065.144-.333.133-.296-.012-.356-.072-.153-.153zm-37.591-.508c.183-.073.402-.064.486.02.085.084-.065.144-.333.133-.296-.012-.356-.072-.153-.153zm.832-.144c.059-.035.506-.406.994-.825l.888-.762-.746.825c-.41.454-.858.826-.995.826-.136 0-.2-.03-.141-.064zm2.01-.825c.327-.35.653-.635.723-.635.07 0-.142.285-.47.635-.328.349-.653.635-.723.635-.07 0 .141-.286.47-.635zm-3.096-.555c.183-.073.402-.064.486.02.085.084-.065.144-.333.133-.296-.012-.356-.072-.153-.153zm43.735-.97c.328-.349.654-.634.724-.634.07 0-.142.285-.47.635-.328.349-.654.635-.723.635-.07 0 .141-.286.47-.635zm-9.535-1.16c-.092-.148-.113-.325-.047-.391.067-.067.19.055.272.27.172.448.025.527-.225.122zm-30.323-.639c.012-.296.073-.356.154-.153.073.183.064.402-.02.487-.085.084-.145-.066-.134-.334zm-1.494-.486c.005-.42.062-.56.126-.313.065.247.06.59-.01.762-.069.172-.121-.03-.116-.45zm2.764.232c.012-.296.073-.356.154-.153.073.183.064.402-.02.487-.085.084-.145-.066-.134-.334zm33.207.229c.183-.073.402-.064.486.02.085.084-.065.144-.333.133-.296-.012-.356-.072-.153-.153zm2.148-.51c.247-.065.59-.06.762.009.172.07-.03.122-.45.117-.419-.005-.56-.063-.312-.127zm-58-.777-.616-.698.699.615c.653.576.815.782.615.782-.045 0-.36-.315-.698-.699zm59.662.525c.183-.073.402-.064.486.02.085.084-.065.144-.333.133-.296-.012-.356-.072-.153-.153zm5.381-1.223c.759-.769 1.437-1.397 1.507-1.397.07 0-.494.628-1.253 1.397-.759.768-1.437 1.397-1.506 1.397-.07 0 .493-.63 1.252-1.397zm-58.452.698c-.316-.403-.307-.412.096-.096.423.332.557.54.348.54-.052 0-.252-.2-.444-.444zm54.087.271c.183-.073.402-.064.486.02.085.084-.065.144-.333.133-.296-.012-.356-.072-.153-.153zm-2.932-1.018c.247-.065.59-.06.762.009.172.07-.03.122-.45.117-.419-.005-.56-.063-.312-.127zm-38.909-.937-.613-.792.727.69c.4.38.675.737.613.792-.063.056-.39-.255-.727-.69zm-4.784.43c.244-.064.644-.064.889 0 .244.063.044.116-.445.116s-.689-.053-.444-.117zm46.625.001c.183-.073.402-.064.486.02.085.085-.065.145-.333.134-.296-.012-.356-.073-.153-.154zm-45.165-.176c0-.053.2-.253.445-.444.403-.316.412-.307.096.095-.332.424-.54.558-.54.35zm-12.192-1.301c-.617-.629-1.064-1.143-.995-1.143.07 0 .632.514 1.25 1.143.616.629 1.064 1.143.994 1.143-.07 0-.632-.514-1.249-1.143zm58.77.262c-.08-.205-.095-.519-.035-.698.06-.18.17-.012.243.373.144.75.025.935-.209.325zm-26.448-.056c.244-.064.644-.064.889 0 .244.064.044.116-.445.116s-.689-.052-.444-.116zm4.207-.253c.183-.073.402-.064.486.02.085.085-.065.145-.333.134-.296-.012-.356-.073-.153-.154zm27.48-.16c0-.043.37-.415.825-.825l.825-.746-.746.825c-.695.77-.905.943-.905.746zm-15.92-1.825c.002-.978.048-1.347.103-.82a9.489 9.489 0 0 1-.002 1.778c-.057.451-.102.02-.1-.958zm-8.719 1.063c0-.043.372-.415.826-.825l.825-.746-.746.825c-.695.77-.905.943-.905.746zm19.956-.502c.095-.251.237-.392.315-.314.078.078 0 .283-.173.456-.251.249-.28.22-.142-.142zm-64.64-.582c.012-.296.073-.356.154-.154.073.184.064.403-.02.487-.085.085-.145-.065-.134-.333zm11.43-.254c.012-.296.073-.356.154-.154.073.184.064.403-.02.487-.085.085-.145-.065-.134-.333zm-8.807-.678-.484-.571.572.484c.537.455.687.659.484.659-.049 0-.306-.257-.572-.572zm11.327.41c0-.135.429-.64.953-1.122l.952-.875-.889 1.013c-.489.557-.917 1.062-.952 1.122-.035.06-.064-.002-.064-.138zm57.785-.346c.253-.28.517-.508.587-.508.07 0-.08.229-.333.508-.253.28-.517.508-.587.508-.07 0 .08-.229.333-.508zm-42.577-.953c-.316-.402-.307-.411.096-.095.423.331.557.54.348.54-.052 0-.252-.2-.444-.445zm25.385.017c.183-.073.402-.064.486.02.085.085-.065.145-.333.134-.296-.012-.356-.073-.153-.154zm4.62.074c0-.055.177-.168.393-.25.226-.088.328-.045.24.099-.15.241-.634.357-.634.151zm11.556-.408c.253-.28.517-.508.587-.508.07 0-.08.229-.333.508-.253.28-.517.508-.587.508-.07 0 .08-.229.333-.508zm1.651.412c0-.053.2-.253.445-.444.403-.316.412-.307.096.095-.332.424-.54.558-.54.35zm-6.277-1.301c.002-.699.051-.954.11-.568.058.386.056.958-.004 1.27-.06.312-.108-.004-.106-.702zm-17.853.254c.328-.35.654-.635.724-.635.07 0-.142.286-.47.635-.328.35-.654.635-.723.635-.07 0 .141-.286.47-.635zm-35.433-.127c.253-.28.517-.508.587-.508.07 0-.08.229-.333.508-.253.28-.517.508-.587.508-.07 0 .08-.229.333-.508zm60.469-.075c.095-.25.237-.391.315-.313.078.078 0 .283-.173.456-.251.249-.28.22-.142-.143zm-1.668-.275c0-.053.2-.253.445-.444.403-.316.412-.307.096.095-.332.424-.54.558-.54.349zm-43.668-.814c.012-.296.073-.356.154-.154.073.184.064.403-.02.487-.085.085-.145-.065-.134-.333zm-26.904-.614c0-.35.058-.492.128-.318a.98.98 0 0 1 0 .635c-.07.175-.128.032-.128-.317zm11.157 0c.37-.778.487-.922.487-.599 0 .136-.178.47-.395.74-.372.466-.378.458-.092-.141zm37.89-.381c.002-.559.054-.758.115-.442.06.316.058.774-.005 1.016-.064.243-.113-.015-.11-.574zm-19.481-.103c-.078-.127.086-.17.366-.098.593.155.668.328.142.328-.201 0-.43-.104-.508-.23zm42.93-.931c-.094-.372-.122-.726-.062-.786.06-.06.186.196.28.568.092.372.12.726.06.786-.06.06-.185-.196-.279-.568zm-8.384-.035c-.138-.362-.11-.39.142-.142.173.173.251.377.173.456-.078.078-.22-.063-.315-.314zm-66.642-.455c.005-.42.062-.56.126-.313.065.247.06.59-.01.762-.069.172-.121-.03-.116-.45zm29.473-.127c0-.489.052-.689.116-.445.064.245.064.645 0 .89-.064.244-.116.044-.116-.445zm21.675-.18c-.138-.362-.11-.39.142-.142.173.173.251.377.173.456-.078.078-.22-.063-.315-.314zm14.81-.265c-.316-.402-.307-.411.096-.095.244.191.444.391.444.444 0 .21-.208.075-.54-.349zm-26.707.007a9.489 9.489 0 0 1 1.778-.002c.527.055.158.101-.82.102-.978.001-1.409-.043-.958-.1zm15.5-.25c.314-.06.828-.06 1.143 0 .314.061.057.11-.572.11-.628 0-.886-.049-.571-.11zm-52.22-.582c0-.35.057-.492.127-.318a.98.98 0 0 1 0 .635c-.07.175-.128.032-.128-.317zm50.351-.106c-.238-.62.01-1.756.408-1.862.312-.084.318-.059.033.141-.226.158-.311.568-.242 1.163.112.958.036 1.17-.199.558zm-53.166-.296c.012-.296.073-.356.154-.154.073.183.064.403-.02.487-.085.084-.145-.066-.134-.333zm29.972 0c.012-.296.073-.356.154-.154.073.183.064.403-.02.487-.085.084-.145-.066-.134-.333zm9.321-.293a12.675 12.675 0 0 1 2.032.002c.52.055.032.099-1.086.098-1.117-.001-1.543-.046-.946-.1zm10.762-.512c-.277-.647-.271-.662.086-.205.212.271.385.585.385.698 0 .386-.172.206-.471-.493zm-46.987-.317c0-.35.058-.492.128-.318a.98.98 0 0 1 0 .635c-.07.175-.128.032-.128-.317zm72.942-1.905c0-.978.047-1.347.102-.82a9.489 9.489 0 0 1-.002 1.778c-.057.45-.102.02-.1-.958zm-27.262 1.143c-.229-.148-.26-.248-.078-.25a.591.591 0 0 1 .46.25c.194.315.106.315-.382 0zm6.81-.174c.184-.073.403-.064.487.02.085.085-.065.145-.333.134-.296-.013-.356-.073-.153-.154zm7.922-.08c-.229-.148-.26-.248-.078-.25a.591.591 0 0 1 .46.25c.194.315.106.315-.382 0zm-57.436-.445c-.316-.403-.307-.412.096-.096.244.192.444.392.444.445 0 .209-.208.074-.54-.349zm50.515.277a.98.98 0 0 1 .635 0c.174.07.032.128-.318.128-.349 0-.492-.058-.317-.128zm-53.785-.452c0-.202.104-.43.23-.509.127-.078.171.087.098.366-.155.593-.328.668-.328.143zm59.643.192c.183-.073.402-.064.486.02.085.085-.065.145-.333.134-.296-.013-.356-.073-.153-.154zm-63.993-.525c-.316-.403-.307-.412.096-.096.244.192.444.392.444.445 0 .209-.208.074-.54-.349zm35.29.271c.184-.073.403-.064.487.02.085.085-.065.145-.333.134-.296-.013-.356-.073-.153-.154zm-29.971-.762c.183-.073.402-.064.486.02.085.085-.065.145-.333.134-.296-.013-.356-.073-.153-.154zm32.496.005a.98.98 0 0 1 .635 0c.174.07.032.128-.318.128-.349 0-.492-.057-.317-.128zm-4.906-.911-.746-.826.826.746c.77.696.942.905.746.905-.044 0-.415-.371-.826-.825zm6.446.652c.183-.073.402-.064.486.02.085.084-.065.144-.333.133-.296-.012-.356-.072-.153-.153zm5.588 0c.183-.073.402-.064.486.02.085.084-.065.144-.333.133-.296-.012-.356-.072-.153-.153zm9.465-.229c.012-.296.073-.356.154-.153.073.183.064.402-.02.487-.085.084-.145-.066-.134-.334zm3.605.226c.247-.064.59-.06.762.01.172.069-.03.122-.45.117-.419-.005-.56-.063-.312-.127zm-14.34-.251c.183-.073.402-.064.486.02.085.084-.065.144-.333.133-.296-.012-.356-.072-.153-.153zm17.78 0c.183-.073.402-.064.486.02.085.084-.065.144-.333.133-.296-.012-.356-.072-.153-.153zm2.524.005a.98.98 0 0 1 .635 0c.174.07.032.128-.318.128-.349 0-.492-.058-.317-.128zm-26.146-1.021c.183-.074.402-.065.486.02.085.084-.065.144-.333.133-.296-.012-.356-.072-.153-.153zm8.382 0c.183-.074.402-.065.486.02.085.084-.065.144-.333.133-.296-.012-.356-.072-.153-.153zm34.396-.843c0-.489.052-.689.116-.444.064.244.064.644 0 .889-.064.244-.116.044-.116-.445zm-36.682.335c.183-.074.402-.065.486.02.085.084-.065.144-.333.133-.296-.012-.356-.072-.153-.153zm33.85-.229c.011-.296.072-.356.153-.153.073.183.064.402-.02.486-.085.085-.145-.065-.134-.333zm-61.04-.036c.457-.056 1.143-.055 1.524.003.382.058.008.104-.83.103-.838-.002-1.15-.049-.694-.105zm-8.762-.754c.247-.064.59-.06.762.01.172.069-.03.121-.45.116-.419-.005-.56-.062-.312-.126zm-1.718-.329c-.089-.144.013-.186.239-.1.44.17.52.351.155.351-.131 0-.309-.113-.394-.25zm24.477-.193c-.316-.403-.307-.412.096-.096.244.192.444.392.444.444 0 .21-.208.075-.54-.348zm40.117.27c.183-.073.402-.064.486.02.085.085-.065.145-.333.134-.296-.012-.356-.072-.153-.153zm2.206-.08c-.45-.193-.428-.22.19-.236.385-.01.7.096.7.236 0 .298-.196.298-.89 0zm-35.496-.168a.98.98 0 0 1 .635 0c.174.07.032.128-.318.128-.349 0-.492-.058-.317-.128zm2.81-.005c.183-.073.402-.064.486.02.085.084-.065.144-.333.133-.296-.012-.356-.072-.153-.153zm34.492-.322c.155-.216.409-.622.564-.902.155-.279.285-.371.29-.204.003.167-.25.572-.564.901-.315.33-.445.421-.29.205zm6.195.293c0-.168.121-.306.27-.306.147 0 .187-.132.087-.293-.107-.173-.07-.224.089-.126.148.092.566-.185.928-.615.362-.43.658-.683.658-.56 0 .121-.457.668-1.016 1.213-.559.546-1.016.855-1.016.687zm-82.36-.313c.315-.127.572-.367.572-.535 0-.167.074-.23.163-.141.248.248-.423.94-.892.921-.28-.01-.229-.09.158-.245zm17.59.163c0-.054.337-.147.749-.208.412-.06.69-.016.62.098-.126.204-1.369.304-1.369.11zm48.228-.346c-.316-.403-.307-.412.096-.096.423.332.557.54.348.54-.052 0-.252-.2-.444-.444zm-49.879-.318c.253-.279.517-.508.587-.508.07 0-.08.23-.333.508-.253.28-.517.508-.587.508-.07 0 .08-.228.333-.508zm20.701.254c-.21-.135-.266-.246-.127-.246.14 0 .426.111.635.246.21.136.267.247.127.247s-.425-.111-.635-.247zm-38.334-.402c.012-.296.073-.356.154-.153.073.183.064.402-.02.487-.085.084-.145-.066-.134-.334zm11.093-.02a.98.98 0 0 1 .635 0c.174.07.031.128-.318.128s-.492-.057-.317-.128zm73.613-.414c.095-.25.237-.392.315-.313.078.078 0 .283-.173.455-.251.25-.28.22-.142-.142zm-48.69-.624c-.316-.403-.307-.412.096-.096.244.192.444.392.444.445 0 .209-.208.074-.54-.35zm30.786.042c.012-.296.073-.356.154-.153.073.183.064.402-.02.487-.085.084-.145-.066-.134-.334zm-49.55-.487c.328-.349.654-.635.724-.635.07 0-.142.286-.47.635-.328.35-.653.635-.723.635-.07 0 .141-.285.47-.635zm51.074.233c.012-.296.073-.356.154-.153.073.183.064.402-.02.487-.085.084-.145-.066-.134-.334zm5.334 0c.012-.296.073-.356.154-.153.073.183.064.402-.02.487-.085.084-.145-.066-.134-.334zm4.318 0c.012-.296.073-.356.154-.153.073.183.064.402-.02.487-.085.084-.145-.066-.134-.334zm-45.772-.296c-.316-.403-.307-.412.096-.096.244.192.444.392.444.444 0 .21-.208.075-.54-.348zm16.202.19c.162-.21.345-.724.407-1.143l.111-.762.038.795c.024.49-.132.928-.406 1.143-.387.303-.406.299-.15-.033zm11.977.08c.183-.073.402-.064.486.02.085.085-.065.145-.333.134-.296-.012-.356-.072-.153-.153zm1.063-.18c0-.054.178-.167.394-.25.226-.087.328-.045.24.1-.15.24-.634.356-.634.15zm-38.1-.758c0-.052.2-.252.445-.444.403-.316.412-.307.096.096-.332.423-.54.558-.54.348zm50.107-.92c0-.628.05-.885.11-.571.061.314.061.829 0 1.143-.06.314-.11.057-.11-.572zm-13.324.335c.183-.074.402-.064.486.02.085.084-.065.144-.333.133-.296-.012-.356-.072-.153-.153zm-22.823-1.16c.622-.664 1.165-1.207 1.206-1.207.19 0-.01.228-1.132 1.281l-1.207 1.132zm30.51.677c.012-.296.073-.356.154-.153.073.183.064.402-.02.487-.085.084-.145-.066-.134-.334zm-5.21-.285c-.138-.362-.11-.391.142-.142.173.172.251.377.173.455-.078.078-.22-.063-.315-.313zm-65.441-.52-.616-.698.699.616c.653.576.815.781.615.781-.045 0-.36-.314-.698-.698zm30.031-.063c0-.349.058-.492.128-.317a.98.98 0 0 1 0 .635c-.07.175-.128.032-.128-.318zm32.726 0c-.59-.189-.596-.205-.078-.228.306-.014.627.089.713.228.087.14.122.243.079.23-.043-.015-.365-.118-.714-.23zm2-.444c-.316-.403-.307-.412.096-.096.244.192.444.392.444.444 0 .21-.208.075-.54-.348zm25.228-.19c.005-.42.062-.56.126-.313.065.247.06.59-.009.762-.07.172-.122-.03-.117-.45zm-88.129-.382c0-.489.052-.689.116-.444.064.244.064.644 0 .889-.064.244-.116.044-.116-.445zm58.806.594a.98.98 0 0 1 .635 0c.174.07.031.128-.318.128s-.492-.057-.317-.128zm23.198.078c.059-.05.506-.164.995-.254.626-.115.776-.089.508.087-.344.226-1.755.382-1.503.167zm-80.499-.672c0-.349.058-.492.128-.317a.98.98 0 0 1 0 .635c-.07.175-.128.032-.128-.318zm29.107.34a.98.98 0 0 1 .635 0c.174.07.031.128-.318.128s-.492-.057-.317-.128zm1.587.072c0-.052.2-.252.445-.444.403-.316.412-.307.096.096-.332.423-.54.558-.54.348zm24.575-.083c.314-.06.828-.06 1.143 0 .314.06.057.11-.572.11-.628 0-.886-.05-.571-.11zm-20.51-.71c.327-.349.653-.635.723-.635.07 0-.142.286-.47.635-.328.35-.653.635-.723.635-.07 0 .141-.285.47-.635zm29.82.064-.484-.572.572.484c.314.266.571.524.571.572 0 .203-.204.053-.659-.484zm-20.978.144c.183-.073.402-.064.486.02.085.084-.065.144-.333.133-.296-.012-.356-.072-.153-.153zm15.748-.508c.183-.073.402-.064.486.02.085.084-.065.144-.333.133-.296-.012-.356-.072-.153-.153zm-19.193-.256c.244-.064.644-.064.889 0 .244.064.044.116-.445.116s-.689-.052-.444-.116zm12.35-.27c-.316-.402-.307-.41.096-.095.423.332.557.54.348.54-.052 0-.252-.2-.444-.444zm5.049.277a.98.98 0 0 1 .635 0c.174.07.032.128-.318.128-.349 0-.492-.057-.317-.128zm29.342-.848c0-.628.05-.885.11-.571.061.314.061.829 0 1.143-.06.314-.11.057-.11-.572zm-53.409.667c0-.053.2-.253.445-.445.403-.316.412-.307.096.096-.332.423-.54.558-.54.349zm22.038-.084c.316-.061.773-.059 1.016.005.243.063-.016.113-.575.11-.559-.003-.757-.055-.441-.115zm-60.098-.583c0-.349.058-.492.128-.317a.98.98 0 0 1 0 .635c-.07.175-.128.032-.128-.318zm5.9-.112c-.078-.201-.096-.573-.041-.825.062-.287.149-.15.231.366.139.865.049 1.082-.19.46zm73.181-.142c.253-.279.517-.508.587-.508.07 0-.08.23-.333.508-.253.28-.517.508-.587.508-.07 0 .08-.228.333-.508zm-74.913-.836c.095-.25.237-.391.315-.313.078.078 0 .283-.173.455-.251.25-.28.22-.142-.142zm54.232-.328c.012-.296.073-.356.154-.153.073.183.064.402-.02.487-.085.084-.145-.066-.134-.334zm29.21-.508c.012-.296.073-.356.154-.153.073.183.064.402-.02.487-.085.084-.145-.066-.134-.334zm-22.007-.677-.746-.826.826.746c.454.41.825.782.825.826 0 .196-.21.023-.905-.746zm-61.07.492c0-.044.37-.415.825-.826l.825-.746-.746.826c-.695.77-.905.942-.905.746zm2.285 0c0-.044.372-.415.826-.826l.825-.746-.746.826c-.695.77-.905.942-.905.746zm34.564-.323c.012-.296.073-.356.154-.153.073.183.064.402-.02.487-.085.084-.145-.066-.134-.334zm-10.14-.614c0-.349.058-.492.128-.317a.98.98 0 0 1 0 .635c-.07.175-.128.032-.128-.318zm58.202-.762c0-.768.048-1.082.106-.698a5.61 5.61 0 0 1 0 1.397c-.058.384-.106.07-.106-.699zm-56.698.614c.012-.296.073-.356.154-.153.073.183.064.402-.02.487-.085.084-.145-.066-.134-.334zm24.423-.36c0-.488.052-.689.116-.444.064.244.064.644 0 .889-.064.244-.116.044-.116-.445zm1.515.127c.005-.419.062-.56.126-.312.065.247.06.59-.009.762-.07.172-.122-.03-.117-.45zm29.154-.432c-.067-.657-.029-1.101.086-.986.115.115.17.652.123 1.194l-.087.986zm-47.285.64c.183-.073.402-.064.486.02.085.084-.065.144-.333.133-.296-.012-.356-.072-.153-.153zm41.83-.335c.253-.279.517-.508.587-.508.07 0-.08.23-.333.508-.253.28-.517.508-.587.508-.07 0 .08-.228.333-.508zm-19.17.095c-.01-.42.686-.926 1.064-.774.21.085.172.138-.106.151-.237.011-.548.22-.69.465-.143.244-.263.316-.267.158zm-56.649-.698c0-.053.2-.253.445-.445.403-.316.412-.307.096.096-.332.423-.54.558-.54.349zm5.779-.073a.98.98 0 0 1 .635 0c.174.07.031.128-.318.128s-.492-.057-.317-.128zm20.891-.015c.35-.063.921-.362 1.27-.664l.635-.55-.616.699c-.399.453-.845.686-1.27.664l-.654-.035.635-.114zm-19.558-.324c.21-.136.496-.247.635-.247.14 0 .083.111-.127.247-.21.135-.495.246-.635.246s-.082-.111.127-.246zm71.394-.657c.012-.296.073-.356.154-.153.073.183.064.402-.02.487-.085.084-.145-.066-.134-.334zm-27.647-.613c0-.49.052-.69.116-.445.064.244.064.645 0 .889s-.116.044-.116-.444zm1.524 0c0-.49.052-.69.116-.445.064.244.064.645 0 .889s-.116.044-.116-.444zm24.587.602c-.011-.419.685-.926 1.063-.774.21.085.172.139-.106.151-.237.011-.548.22-.69.465-.143.244-.263.316-.267.158zm-65.08-.776c.184-.073.403-.064.487.02.085.084-.065.144-.333.133-.296-.012-.356-.072-.153-.153zm-16.676-.588c0-.35.058-.493.128-.318a.98.98 0 0 1 0 .635c-.07.175-.128.032-.128-.317zm5.32-1.092c-.322-.535-.316-.54.121-.121.252.241.403.493.336.56-.066.067-.272-.13-.457-.439zm64.979-.623-.616-.698.699.615c.653.576.815.782.615.782-.045 0-.36-.315-.698-.699zm-70.543-.19c.005-.42.062-.56.126-.313.065.247.06.59-.01.762-.069.172-.121-.03-.116-.45zm28.438.127c0-.35.058-.493.128-.318a.98.98 0 0 1 0 .635c-.07.175-.128.032-.128-.317zm25.717-.064-.484-.571.572.483c.314.267.571.524.571.572 0 .203-.204.053-.659-.484zm36.747-.593c.012-.296.073-.356.154-.153.073.183.064.402-.02.487-.085.084-.145-.066-.134-.334zm-88.791-.103c-.089-.144.013-.186.239-.1.44.17.52.352.155.352-.131 0-.309-.113-.394-.252zm3.903-.193c-.316-.403-.307-.412.096-.096.244.192.444.392.444.445 0 .209-.208.074-.54-.349zm51.36-.466c.012-.296.073-.356.154-.153.073.183.064.402-.02.487-.085.084-.145-.066-.134-.334zm-19.324.053c0-.053.2-.253.445-.445.403-.316.412-.307.096.096-.332.423-.54.558-.54.349zm13.311-.476-.484-.571.572.483c.537.455.687.66.484.66-.049 0-.306-.258-.572-.572zm34.745-.317c.005-.42.062-.56.126-.313.065.247.06.59-.009.762-.07.172-.122-.03-.117-.45zm1.524-.254c.005-.42.062-.56.126-.313.065.247.06.59-.009.762-.07.172-.122-.03-.117-.45zm-61.311-.301c.183-.073.402-.064.486.02.085.084-.065.144-.333.133-.296-.012-.356-.072-.153-.153zm12.747-.007c0-.146.2-.422.445-.614.41-.322.416-.31.072.16-.205.279-.405.555-.445.613-.04.059-.072-.013-.072-.159zm18.054-.222c.012-.295.073-.356.154-.153.073.183.064.402-.02.487-.085.084-.145-.066-.134-.334zm20.99-.363c.073-.282.223-.568.333-.636.11-.068.14.107.066.39-.074.281-.224.567-.334.635-.11.068-.14-.107-.065-.389zm-79.351-1.14c.001-.838.049-1.15.105-.693.057.456.056 1.142-.002 1.524-.058.381-.105.008-.103-.83zm13.844.462c.183-.073.402-.064.486.02.085.084-.065.145-.333.134-.296-.013-.356-.073-.153-.154zm44.263-.229c.012-.295.073-.356.154-.153.073.183.064.402-.02.487-.085.084-.145-.066-.134-.334zm17.459.23c.183-.074.402-.065.486.02.085.083-.065.144-.333.132-.296-.012-.356-.072-.153-.153zm9.934-.526-.616-.698.699.615c.653.576.815.782.615.782-.045 0-.36-.315-.698-.699zm-75.228.276a.98.98 0 0 1 .635 0c.174.07.031.128-.318.128s-.492-.057-.317-.128zm63.373-.007c.244-.064.644-.064.889 0 .244.064.044.117-.445.117s-.689-.053-.444-.117zm-61.595-.247a.98.98 0 0 1 .635 0c.174.07.031.128-.318.128s-.492-.057-.317-.128zm2.35-.086-.89-.187 1.095-.033c.672-.02 1.034.064.937.22-.086.14-.179.24-.205.221-.027-.018-.449-.118-.938-.22zm-4.81-.286c-.021-.522.624-1.073 1.054-.9.202.08.154.138-.126.15-.25.011-.557.278-.683.592-.155.387-.235.438-.246.158zm30.86-.357c-.272-.205-.372-.373-.222-.373.149 0 .413.172.587.382.396.476.271.473-.366-.009zm18.717-.05a11.058 11.058 0 0 1 1.905 0c.524.055.095.1-.953.1s-1.476-.045-.952-.1zm6.239.012c.183-.073.402-.064.486.02.085.084-.065.144-.333.133-.296-.012-.356-.072-.153-.153zm-46.482-.254c.183-.073.402-.064.486.02.085.084-.065.144-.333.133-.296-.012-.356-.072-.153-.153zm2.587.074c0-.055.178-.168.394-.251.226-.087.328-.045.24.1-.15.24-.634.356-.634.15zm41.596-.08c.316-.061.773-.059 1.016.005.243.063-.016.113-.575.11-.559-.003-.757-.055-.441-.115zm21.416-.223c.012-.296.073-.356.154-.153.073.183.064.402-.02.487-.085.084-.145-.066-.134-.334zm-72.473-.274a.98.98 0 0 1 .635 0c.174.07.031.128-.318.128s-.492-.057-.317-.128zm20.32-.01c.314-.061.828-.061 1.143 0 .314.06.057.11-.572.11-.628 0-.886-.05-.571-.11zm14.033.083c0-.053.2-.253.445-.445.403-.316.412-.307.096.096-.332.423-.54.558-.54.349zm-32.194-.34a5.61 5.61 0 0 1 1.397 0c.384.058.07.105-.699.105-.768 0-1.082-.047-.698-.105zm8.572.102c0-.044.372-.415.826-.825l.825-.746-.746.825c-.695.77-.905.942-.905.746zm12.383-.104a8.09 8.09 0 0 1 1.65 0c.455.056.083.102-.825.102-.908 0-1.28-.046-.825-.102zm50.054-.244c.183-.073.402-.064.486.02.085.084-.065.144-.333.133-.296-.012-.356-.072-.153-.153zm6.925-.229c.012-.296.073-.356.154-.153.073.183.064.402-.02.487-.085.084-.145-.066-.134-.334zm-90.19.051c0-.053.229-.157.509-.23.28-.073.444-.03.366.097-.137.221-.875.334-.875.133zm-2.266-.559c.012-.296.073-.356.154-.153.073.183.064.402-.02.487-.085.084-.145-.066-.134-.334zm82.609-1.248c.002-.839.049-1.15.105-.694.057.456.056 1.142-.003 1.524-.058.381-.104.008-.102-.83zm-53.266.694c.153-.102.344-.358.424-.567.097-.255.152-.192.165.19.014.384-.126.57-.424.568-.274-.002-.338-.076-.165-.19zm1.92-.313c0-.35.057-.493.127-.318a.98.98 0 0 1 0 .635c-.07.175-.128.032-.128-.317zm-4.406.08c.183-.073.402-.064.486.02.085.084-.065.144-.333.133-.296-.012-.356-.072-.153-.153zm-27.038-5.16c0-3.661.031-4.12.144-2.075.121 2.204.223 2.683.637 2.985.271.198.364.36.206.36s-.38-.143-.493-.318c-.12-.184-.266.538-.35 1.715-.09 1.281-.144.296-.144-2.667zm91.601 3.698c0-.341.094-.678.208-.75.115-.07.159.21.098.62-.133.909-.306.981-.306.13zm-61.936-.65c0-.35.058-.493.128-.318a.98.98 0 0 1 0 .635c-.07.175-.128.032-.128-.317zm1.504-.149c.012-.296.073-.356.154-.153.073.183.064.402-.02.487-.085.084-.145-.066-.134-.334zm26.945-1.947c.041-2.389.142-2.104.27.763.038.873-.016 1.587-.12 1.587-.105 0-.172-1.058-.15-2.35zm7.643 2.168a5.61 5.61 0 0 1 1.397 0c.384.058.07.105-.699.105-.768 0-1.082-.047-.698-.105zm-64.032-.58c0-.35.058-.493.128-.318a.98.98 0 0 1 0 .635c-.07.175-.128.032-.128-.317zm57.3.34a.98.98 0 0 1 .636 0c.174.07.032.127-.318.127-.349 0-.492-.057-.317-.128zm-55.776-.594c0-.35.058-.493.128-.318a.98.98 0 0 1 0 .635c-.07.175-.128.032-.128-.317zm51.776.412c0-.053.2-.253.445-.445.403-.316.412-.307.096.096-.332.423-.54.558-.54.349zm7.433-.087c.386-.058.958-.057 1.27.003.313.06-.004.108-.702.106-.698-.002-.954-.05-.568-.11zm7.3-.453c.327-.349.653-.635.723-.635.07 0-.142.286-.47.635-.328.35-.653.635-.723.635-.07 0 .141-.285.47-.635zm-40.367-.783c.012-.296.073-.356.154-.153.073.183.064.402-.02.487-.085.084-.145-.066-.134-.334zm27.204-.918-.046-1.448-1.46-.092-1.46-.091 1.468-.048c1.69-.056 1.783.051 1.64 1.889l-.096 1.237zm-50.448.633c-.138-.362-.11-.391.142-.142.173.172.251.377.173.455-.078.078-.22-.063-.315-.313zm24.768.031c.012-.296.073-.356.154-.153.073.183.064.402-.02.487-.085.084-.145-.066-.134-.334zm55.066-.296c-.316-.403-.307-.412.096-.096.423.332.557.54.348.54-.052 0-.252-.2-.444-.444zm7.418-.466c.012-.296.073-.356.154-.153.073.183.064.402-.02.487-.085.084-.145-.066-.134-.334zm-64.232-.74c.005-.42.062-.56.126-.313.065.247.06.59-.01.762-.069.172-.121-.03-.116-.45zm1.524 0c.005-.42.062-.56.126-.313.065.247.06.59-.01.762-.069.172-.121-.03-.116-.45zm-23.704-.064c-.316-.403-.307-.412.096-.096.244.192.444.392.444.445 0 .209-.208.074-.54-.349zm41.879-.247a8.085 8.085 0 0 1 1.65 0c.455.056.083.102-.825.102-.908 0-1.28-.046-.825-.102zm31.178-.07c-.414-.178-.428-.222-.078-.237.236-.01.5.097.586.237.18.292.172.292-.508 0zm13.355-.149c.012-.296.073-.356.154-.153.073.183.064.402-.02.487-.085.084-.145-.066-.134-.334zm-41.231-.02a.98.98 0 0 1 .635 0c.174.07.032.128-.318.128-.349 0-.492-.057-.317-.128zm26.686-.259c.183-.073.402-.064.486.02.085.084-.065.144-.333.133-.296-.012-.356-.072-.153-.153zm-1.662-.256c.247-.065.59-.06.762.009.172.07-.03.122-.45.117-.419-.005-.56-.062-.312-.126zM90.37 97.459c.012-.296.073-.356.154-.153.073.183.064.402-.02.487-.085.084-.145-.066-.134-.334zm1.544-.105c0-.35.058-.493.128-.318a.98.98 0 0 1 0 .635c-.07.175-.128.032-.128-.317zm27.412-1.419c.012-.296.073-.356.154-.153.073.183.064.402-.02.487-.085.084-.145-.066-.134-.334zm29.38-.02a.98.98 0 0 1 .636 0c.174.07.031.128-.318.128s-.492-.057-.317-.128zm-86.597-.704c-.156-.753.441-2.43.865-2.43.119 0 .075.258-.096.572-.172.314-.381 1.029-.464 1.588-.147.986-.156.994-.305.27zm28.037-.016c.005-.42.062-.56.126-.313.065.247.06.59-.01.762-.069.172-.121-.03-.116-.45zm16.587.127c.253-.28.517-.508.587-.508.07 0-.08.228-.333.508-.253.279-.517.508-.587.508-.07 0 .08-.23.333-.508zm-42.936-.017c-.092-.15-.113-.326-.047-.392.067-.067.19.055.272.27.172.448.025.527-.225.122zm27.863-.237c0-.35.058-.493.128-.318a.98.98 0 0 1 0 .635c-.07.175-.128.032-.128-.317zm55.207.256c-.089-.144.013-.186.239-.1.44.17.52.352.155.352-.131 0-.309-.113-.394-.252zm-19.496-.17a.98.98 0 0 1 .635 0c.174.07.032.127-.318.127-.349 0-.492-.057-.317-.128zm1.73-.415c.096-.25.238-.391.316-.313.078.078 0 .283-.173.455-.251.25-.28.22-.142-.142zm-3.824-.177c-.089-.144.013-.186.239-.1.44.17.52.352.155.352-.131 0-.309-.113-.394-.252zm20.816-.02c-.092-.148-.113-.325-.047-.391.067-.067.19.055.272.27.172.448.025.527-.225.122zm5.588 0c-.092-.148-.113-.325-.047-.391.067-.067.19.055.272.27.172.448.025.527-.225.122zm-10.003-.639c.012-.296.073-.356.154-.153.073.183.064.402-.02.487-.085.084-.145-.066-.134-.334zm-17.832-.296c-.316-.403-.307-.412.096-.096.423.332.557.54.348.54-.052 0-.252-.2-.444-.444zm5.67-.444c.005-.42.062-.56.126-.313.065.247.06.59-.009.762-.07.172-.122-.03-.117-.45zm13.94-.022c.012-.296.073-.356.154-.153.073.183.064.402-.02.487-.085.084-.145-.066-.134-.334zm8.382 0c.012-.296.073-.356.154-.153.073.183.064.402-.02.487-.085.084-.145-.066-.134-.334zm-43.327-.36c.253-.279.517-.507.587-.507.07 0-.08.228-.333.508-.253.279-.517.508-.587.508-.07 0 .08-.23.333-.508zm10.59-3.746c-.027-2.41.037-4.382.142-4.382.104 0 .16 1.343.124 2.985-.119 5.348-.218 5.866-.267 1.397zm3.61 3.683-.484-.571.572.483c.537.455.687.66.484.66-.049 0-.306-.258-.572-.572zm-57.848.058c.118-.113.5-.244.85-.29.474-.064.629-.232.613-.665-.015-.409.059-.5.248-.31.424.423-.155 1.108-1.1 1.301-.454.093-.729.077-.61-.036zm77.07-.143c.011-.296.072-.356.153-.153.073.183.064.402-.02.487-.085.084-.145-.066-.134-.334zm-71.487-.74c.08-.21.191-.381.246-.381.055 0 .1.171.1.38 0 .21-.11.382-.246.382-.135 0-.18-.172-.1-.381zm77.366-.02c.24-.252.493-.404.56-.337.066.067-.13.273-.439.458-.535.321-.54.316-.121-.121zm-19.005-.425-.484-.571.572.483c.314.267.571.524.571.572 0 .203-.204.053-.659-.484zm17.17.145c0-.141.256-.474.57-.74l.572-.484-.505.635c-.278.349-.535.682-.572.74-.036.059-.066-.01-.066-.15zm-73.64-.738c.011-.296.072-.356.153-.153.073.183.064.402-.02.487-.085.084-.145-.066-.134-.334zm79.521-.105c0-.35.058-.493.128-.318a.98.98 0 0 1 0 .635c-.07.175-.128.032-.128-.317zM70.812 90.6c.012-.296.073-.356.154-.153.073.183.064.402-.02.487-.085.084-.145-.066-.134-.334zm-1.695-.423-.484-.571.572.483c.537.455.687.66.484.66-.049 0-.306-.258-.572-.572zm55.222-.364c.183-.073.402-.064.486.02.085.084-.065.144-.333.133-.296-.012-.356-.072-.153-.153zm17.956-.078c-.089-.144.013-.186.239-.1.44.17.52.352.155.352-.131 0-.309-.113-.394-.252zm9.29-.15c.011-.297.072-.357.153-.154.073.183.064.402-.02.487-.085.084-.145-.066-.134-.334zm-29.532-.026c.183-.073.402-.064.486.02.085.084-.065.144-.333.133-.296-.012-.356-.072-.153-.153zm-26.686-.26a3.62 3.62 0 0 1 1.143 0c.314.06.057.11-.572.11-.628 0-.886-.05-.571-.11zm21.717.004c.367-.095.444-.41.444-1.796v-1.68l-.825.747-.826.746.746-.826c.41-.454.84-.825.953-.825.113 0 .206.857.206 1.905 0 1.815-.027 1.903-.571 1.875-.43-.022-.462-.058-.127-.146zm-19.622-.188c0-.07.229-.249.508-.398.28-.15.508-.215.508-.145s-.228.249-.508.399c-.28.15-.508.214-.508.144zm9.398-.244c0-.055.178-.168.394-.251.226-.087.328-.045.24.1-.15.24-.634.356-.634.15zm44.49-.662c0-.35.058-.493.128-.318a.98.98 0 0 1 0 .635c-.07.175-.128.032-.128-.317zm-78.018.158c0-.053.2-.253.445-.445.403-.316.412-.307.096.096-.332.423-.54.558-.54.349zm6.35-.004c0-.055.178-.168.394-.251.226-.087.328-.045.24.1-.15.24-.634.356-.634.15zm29.67-.074c.184-.073.403-.064.487.02.085.084-.065.145-.333.133-.296-.012-.356-.072-.153-.153zm-22.175-.332c-.089-.144.013-.186.239-.1.44.17.52.352.155.352-.131 0-.309-.113-.394-.252zm23.192.078c.183-.073.402-.064.486.02.085.084-.065.144-.333.133-.296-.012-.356-.072-.153-.153zm-18.475-.483c.012-.296.073-.356.154-.153.073.183.064.402-.02.487-.085.084-.145-.066-.134-.334zm20.49.219a8.085 8.085 0 0 1 1.652 0c.454.056.082.102-.826.102-.908 0-1.28-.046-.825-.102zm36.973-1.213c.002-.839.049-1.15.105-.694.057.456.056 1.142-.003 1.524-.058.381-.104.008-.102-.83zm-34.369 1.043c0-.055.178-.168.394-.251.226-.087.328-.045.24.1-.15.24-.634.356-.634.15zm32.839-1.043c.002-.699.051-.955.11-.568.058.386.056.957-.004 1.27-.06.312-.108-.004-.106-.702zm-82.349.486c.012-.296.073-.356.154-.153.073.183.064.402-.02.487-.085.084-.145-.066-.134-.334zm.782-.105c0-.35.058-.493.128-.318a.98.98 0 0 1 0 .635c-.07.175-.128.032-.128-.317zm9.565.334c.183-.073.402-.064.486.02.085.084-.065.144-.333.133-.296-.012-.356-.072-.153-.153zm2.047-.779c-.316-.403-.307-.412.096-.096.423.332.557.54.348.54-.052 0-.252-.2-.444-.444zm5.18.262c.385-.058.957-.057 1.27.004.312.06-.004.108-.703.106-.698-.002-.954-.051-.568-.11zm68.024-.22c.012-.296.073-.356.154-.153.073.183.064.402-.02.487-.085.084-.145-.066-.134-.334zm-83.078-.278c0-.141.257-.474.572-.74l.571-.484-.505.635c-.278.349-.535.682-.572.74-.036.059-.066-.01-.066-.15zm25.845.004a.98.98 0 0 1 .635 0c.174.07.031.128-.318.128s-.492-.057-.317-.128zm46.057-.234c.012-.296.073-.356.154-.153.073.183.064.402-.02.487-.085.084-.145-.066-.134-.334zm-44.517-.025c.183-.073.402-.064.486.02.085.084-.065.145-.333.133-.296-.012-.356-.072-.153-.153zm46.041-.229c.012-.296.073-.356.154-.153.073.183.064.402-.02.487-.085.084-.145-.066-.134-.334zm-44.517-.025c.183-.073.402-.064.486.02.085.084-.065.144-.333.133-.296-.012-.356-.072-.153-.153zm-30.94-.573c0-.132.112-.31.25-.395.144-.089.187.013.1.24-.169.44-.35.52-.35.155zm17.202.055a9.485 9.485 0 0 1 1.778-.002c.527.055.158.101-.82.102-.978.001-1.409-.044-.958-.1zm22.447-.25c.185-.307.39-.505.457-.438s-.084.319-.336.56c-.437.419-.443.414-.121-.121zm34.03.031c.012-.296.073-.356.154-.153.073.183.064.402-.02.487-.085.084-.145-.066-.134-.334zm-65.222-1.121c0-.769.048-1.083.106-.699a5.61 5.61 0 0 1 0 1.397c-.058.384-.106.07-.106-.698zm25.277 1.096c.183-.073.402-.064.486.02.085.084-.065.144-.333.133-.296-.012-.356-.072-.153-.153zm41.47-.229c.011-.296.072-.356.153-.153.073.183.064.402-.02.487-.085.084-.145-.066-.134-.334zm-74.189.053c0-.053.2-.253.445-.445.403-.316.412-.307.096.096-.332.423-.54.558-.54.349zm2.936-.135c-.078-.126.086-.17.366-.097.593.155.668.328.142.328-.201 0-.43-.104-.508-.23zm6.023-.785c0-.63.05-.886.11-.572.061.314.061.829 0 1.143-.06.314-.11.057-.11-.571zm14.214.254c0-.49.052-.69.116-.445.064.245.064.645 0 .889-.064.245-.116.044-.116-.444zm1.465.254c0-.28.104-.508.23-.508.127 0 .17.228.098.508-.073.279-.177.508-.23.508-.054 0-.098-.23-.098-.508zm2.096.072a5.61 5.61 0 0 1 1.397 0c.384.058.07.105-.699.105-.768 0-1.082-.047-.698-.105zm18.177-.246c.183-.073.402-.064.486.02.085.084-.065.144-.333.133-.296-.012-.356-.072-.153-.153zm38.728-.97c.002-.698.051-.954.11-.567.058.386.056.957-.004 1.27-.06.312-.108-.004-.106-.702zm-47.683.66c-.078-.127.086-.171.366-.098.593.155.668.328.142.328-.201 0-.43-.104-.508-.23zm7.177.056c.183-.073.402-.064.486.02.085.084-.065.144-.333.133-.296-.012-.356-.072-.153-.153zm2.587.078c0-.053.2-.253.445-.445.403-.316.412-.307.096.096-.332.423-.54.558-.54.349zm-40.767-.666c.253-.28.517-.508.587-.508.07 0-.08.228-.333.508-.253.279-.517.508-.587.508-.07 0 .08-.23.333-.508zm39.497.41c0-.053.229-.157.509-.23.28-.073.444-.03.366.097-.137.221-.875.334-.875.133zm10.812-.23c.095-.251.237-.392.315-.314.078.078 0 .283-.173.455-.251.25-.28.22-.142-.142zm-52.087-.434c.253-.28.517-.508.587-.508.07 0-.08.228-.333.508-.253.279-.517.508-.587.508-.07 0 .08-.23.333-.508zm27.834.415c.059-.051.392-.229.741-.395.599-.285.607-.28.142.093-.404.324-1.231.607-.883.302zm9.734-.479-.484-.571.572.483c.314.267.571.524.571.572 0 .203-.204.053-.659-.484zm27.79.398c.183-.073.402-.064.486.02.085.084-.065.144-.333.133-.296-.012-.356-.072-.153-.153zm2.354.102c.059-.04.335-.24.614-.445.47-.345.482-.34.16.072-.192.245-.468.445-.614.445-.146 0-.218-.033-.16-.072zM68.633 81.86c.83-.839 1.565-1.524 1.635-1.524.07 0-.551.685-1.38 1.524-.83.838-1.566 1.524-1.636 1.524-.07 0 .552-.686 1.381-1.524zm21.737.867c.012-.296.073-.356.154-.153.073.183.064.402-.02.487-.085.084-.145-.066-.134-.334zm3.473.223a3.62 3.62 0 0 1 1.143 0c.314.06.057.11-.572.11-.628 0-.886-.05-.571-.11zm6.413-.963c.474-.49.919-.89.989-.89.07 0-.26.4-.735.89-.474.488-.919.889-.988.889-.07 0 .26-.4.734-.89zm14.224.81c0-.045.372-.416.826-.826l.825-.746-.746.825c-.695.77-.905.942-.905.746zm4.667-.294c-.078-.205-.094-.52-.034-.699.06-.179.17-.011.243.373.144.75.025.935-.209.326zm1.93-.121c.145-.272.39-.572.543-.667.153-.094.082.128-.158.494-.508.776-.771.894-.385.173zm7.183.318c.244-.063.644-.063.889 0 .244.064.044.117-.445.117s-.689-.053-.444-.117zm17.176-.269c-.316-.403-.307-.412.096-.096.423.332.557.54.348.54-.052 0-.252-.2-.444-.444zm1.913-.381-.484-.571.572.483c.537.455.687.66.484.66-.049 0-.306-.258-.572-.572zm-7.077.081c-.08-.13-.049-.296.07-.37.118-.073.216.033.216.237 0 .428-.08.465-.286.133zm-49.734-.173c-.162-.262.213-1.06.402-.853.06.066.028.34-.07.61-.098.27-.247.38-.332.243zm13.274-.48c.328-.349.654-.634.724-.634.07 0-.142.285-.47.635-.328.349-.653.635-.723.635-.07 0 .141-.286.47-.635zm33.782.556c0-.044.372-.415.826-.825l.825-.746-.746.825c-.695.77-.905.942-.905.746zM79.62 81.68a3.62 3.62 0 0 1 1.143 0c.314.06.057.11-.572.11-.628 0-.886-.05-.571-.11zm31.325-.477c.012-.296.073-.356.154-.153.073.183.064.402-.02.487-.085.084-.145-.066-.134-.334zm-11.958.053c0-.053.2-.253.445-.445.403-.316.412-.307.096.096-.332.423-.54.558-.54.349zm29.21-.002c0-.053.283-.151.628-.217.345-.066.566-.022.493.097-.13.21-1.12.317-1.12.12zm4-.07a.98.98 0 0 1 .636 0c.174.07.032.127-.318.127-.349 0-.492-.057-.317-.128zm-38.798-.182c0-.053.2-.253.445-.445.403-.316.412-.307.096.096-.332.423-.54.558-.54.349zm32.654-.294c-.271-.205-.37-.372-.221-.372s.413.171.587.38c.396.477.271.474-.366-.008zm-52.05-.036c.158-.115.35-.438.427-.717.11-.401.13-.378.093.107-.026.338-.218.661-.428.717-.252.068-.283.032-.093-.107zm17.872-.463c.328-.35.654-.635.724-.635.07 0-.142.285-.47.635-.328.349-.653.635-.723.635-.07 0 .141-.286.47-.635zm24.384.539c0-.053.2-.253.445-.445.403-.316.412-.307.096.096-.332.423-.54.558-.54.349zm2.59-.54c.005-.419.062-.56.126-.312.065.247.06.59-.009.762-.07.172-.122-.03-.117-.45zm-39.95.048c.115-.115.653-.17 1.195-.123l.986.086-1.194.123c-.658.067-1.101.028-.986-.086zm55.108-.111c-.316-.403-.307-.412.096-.096.423.332.557.54.348.54-.052 0-.252-.2-.444-.444zm-58.134.01c0-.146.2-.422.445-.614.41-.322.416-.31.072.16-.205.279-.405.555-.445.613-.04.059-.072-.013-.072-.16zm8.636.08c0-.054.178-.167.394-.25.226-.087.328-.045.24.1-.15.24-.634.356-.634.15zm21.543-.073c.183-.073.402-.064.486.02.085.084-.065.144-.333.133-.296-.012-.356-.072-.153-.153zm5.147-.229c.012-.296.073-.356.154-.153.073.183.064.402-.02.487-.085.084-.145-.066-.134-.334zm3.282.307c0-.053.2-.253.445-.445.403-.316.412-.307.096.096-.332.423-.54.558-.54.349zm34.766-.349c-.316-.403-.307-.412.096-.096.244.192.444.392.444.445 0 .209-.208.074-.54-.349zm-17.046-.243c.316-.06.773-.059 1.016.005s-.016.113-.575.11c-.559-.002-.757-.054-.441-.115zm-43.779-.646-.484-.572.572.484c.537.455.687.66.484.66-.049 0-.306-.258-.572-.572zm14.444.141c.247-.064.59-.06.762.01.172.07-.03.122-.45.117-.419-.005-.56-.062-.312-.127zm-12.801-.522c-.316-.403-.307-.412.096-.096.423.332.557.54.348.54-.052 0-.252-.2-.444-.444zm14.95-.551c-.11-.423-.077-.522.111-.333.148.147.218.418.157.601-.063.19-.178.075-.268-.268zm5.402.234c-.229-.148-.26-.248-.078-.25a.591.591 0 0 1 .46.25c.194.315.106.315-.382 0zM98.5 77.69c-.598-.637-.639-1.456-.078-1.57.178-.036.207-.007.064.064-.429.212-.297.905.291 1.53.304.324.496.589.426.589s-.386-.276-.703-.613zm8.21.041-.484-.571.572.483c.314.267.571.524.571.572 0 .203-.204.053-.659-.484zm-30.583.222c0-.053.2-.253.445-.445.403-.316.412-.307.096.096-.332.423-.54.558-.54.349zm10.414-.223c0-.07.161-.261.359-.425.276-.229.402-.221.548.033.105.181.097.245-.017.141-.115-.103-.361-.06-.549.095-.187.155-.34.226-.34.156zm16.07-.111c.248-.065.59-.06.763.009.172.07-.03.122-.45.117-.419-.005-.56-.062-.312-.126zm10.092-.46c.328-.349.654-.634.724-.634.07 0-.142.285-.47.635-.328.349-.653.635-.723.635-.07 0 .141-.286.47-.635zm5.514-.04c-.097-.486-.008-.846.27-1.102.372-.345.38-.34.077.063-.24.319-.258.537-.064.77.15.18.178.475.065.659-.143.23-.25.112-.348-.39zm27.101.104-.484-.571.572.483c.537.455.687.66.484.66-.049 0-.306-.258-.572-.572zm-36.965-.127c-.316-.403-.307-.412.096-.096.423.332.557.54.348.54-.052 0-.252-.2-.444-.444zM79.38 76.86c.183-.073.402-.064.486.02.085.084-.065.145-.333.133-.296-.012-.356-.072-.153-.153zm3.35.074c0-.055.177-.168.393-.251.226-.087.328-.045.24.1-.15.24-.634.356-.634.15zm23.13-.187c-.019-.47.673-1.14.92-.893.09.09.027.164-.14.164-.168 0-.409.257-.535.571-.155.387-.235.438-.246.158zm33.718.113c.183-.073.402-.064.486.02.085.084-.065.144-.333.133-.296-.012-.356-.072-.153-.153zm-12.565-.472c-.083-.216-.094-.45-.024-.518.069-.07.187.107.261.391.158.606-.017.7-.237.127zm10.644.216c.244-.063.644-.063.889 0 .244.064.044.117-.445.117s-.689-.053-.444-.117zm-1.651-.478c-.985-.534-.874-.718.127-.21.957.487 1.127.613.804.6-.128-.006-.547-.181-.931-.39zm-47.467-.299c-.316-.403-.307-.412.096-.096.423.332.557.54.348.54-.052 0-.252-.2-.444-.444zm8.414.095c0-.053.2-.253.445-.445.403-.316.412-.307.096.096-.332.423-.54.558-.54.349zm18.288-.002c0-.053.286-.152.635-.219.35-.066.635-.023.635.098 0 .12-.286.219-.635.219-.349 0-.635-.044-.635-.098zm-36.253-.586c.247-.065.59-.06.762.009.172.07-.03.122-.45.117-.419-.005-.56-.062-.312-.126zm4.884-.078c-.086-.14-.036-.254.112-.254s.27.114.27.254-.051.254-.113.254c-.061 0-.182-.115-.269-.254zm1.329-.529c.09-.343.205-.458.268-.268.061.183-.01.454-.157.601-.188.189-.222.09-.111-.333zm52.715.353c.247-.065.59-.06.762.009.172.07-.03.122-.45.117-.419-.005-.56-.062-.312-.126zm-62.299-.428c0-.053.2-.253.445-.445.403-.316.412-.307.096.096-.332.423-.54.558-.54.349zm59.658-.857c-.316-.403-.307-.412.096-.096.423.332.557.54.348.54-.052 0-.252-.2-.444-.444zm-29.48.017c.184-.073.403-.064.487.02.085.084-.065.145-.333.133-.296-.012-.356-.072-.153-.153zm9.637-.249a.98.98 0 0 1 .635 0c.174.07.031.128-.318.128s-.492-.057-.317-.128zm26.582-.403-.484-.571.572.483c.537.455.687.66.484.66-.049 0-.306-.258-.572-.572zm-57.76.064c-.23-.148-.261-.248-.08-.25a.59.59 0 0 1 .46.25c.195.315.107.315-.38 0zm-4.62-.428c.183-.073.402-.064.486.02.085.084-.065.145-.333.133-.296-.012-.356-.072-.153-.153zm42.211.078c0-.053.2-.253.445-.445.403-.316.412-.307.096.096-.332.423-.54.558-.54.349zm-39.878-.762c0-.053.2-.253.445-.445.403-.316.412-.307.096.096-.332.423-.54.558-.54.349zm39.171-.797c.52-.543.985-.936 1.036-.873.05.063-.375.507-.944.988l-1.036.873zm-34.618-.314-.616-.698.699.615c.653.576.815.782.615.782-.045 0-.36-.315-.698-.699zm42.31.518c.28-.067.908-.482 1.397-.923l.89-.801-.876.952c-.51.554-1.094.94-1.397.923-.51-.029-.51-.032-.014-.151zm3.128-.247c.183-.073.402-.064.486.02.085.084-.065.145-.333.133-.296-.012-.356-.072-.153-.153zm3.317-.525c-.316-.403-.307-.412.096-.096.423.332.557.54.348.54-.052 0-.252-.2-.444-.444zm-50.958-.493c.244-.063.644-.063.889 0 .244.064.044.117-.445.117s-.689-.053-.444-.117zm49.701-.523-.616-.698.699.615c.653.576.815.782.615.782-.045 0-.36-.315-.698-.699zm-2.203.015c.244-.063.644-.063.889 0 .244.064.044.117-.445.117s-.689-.053-.444-.117zm-.254-1.016c.244-.063.644-.063.889 0 .244.064.044.117-.445.117s-.689-.053-.444-.117zm-7.493-1.528a3.62 3.62 0 0 1 1.143 0c.314.06.057.11-.572.11-.628 0-.886-.05-.571-.11z" transform="translate(-58.577 -64.416)"/>
    <path style="fill:#0f0d09;stroke-width:.254" d="M88.488 161.013c-1.86-.524-2.432-1.035-4.564-4.08-.591-.845-1.644-1.369-5.657-2.815-6.221-2.243-6.962-3.146-8.744-10.663a277.037 277.037 0 0 1-1.136-4.996c-.281-1.323-.655-2.261-1.163-2.921l-1.495-1.941c-.41-.532-1.103-1.904-1.539-3.048-.441-1.158-1.278-2.7-1.887-3.477-1.472-1.878-2.104-3.114-2.453-4.795-.37-1.787-.18-3.385.704-5.88l.702-1.98-.59-1.99c-1.099-3.705-1.7-13.385-1.05-16.88.141-.753.995-2.854 1.9-4.67.903-1.817 1.917-4.122 2.252-5.123.72-2.15 1.137-2.779 3.839-5.789 6.062-6.753 7.75-8.164 10.766-9 .997-.276 2.48-.914 3.295-1.417 1.635-1.008 2.84-1.302 4.252-1.037 1.314.246 3.212 2.194 3.767 3.865.445 1.34 1.172 2.198 2.098 2.478.333.101 1.424-.14 2.794-.615 1.237-.43 3.791-1.182 5.677-1.673 2.977-.775 3.764-.885 5.97-.832 1.396.033 3.823-.036 5.392-.153 3.155-.235 3.341-.333 3.881-2.04.794-2.508 2.372-3.575 5.879-3.973 2.997-.34 5.34-.17 6.87.5.657.288 2.155.629 3.328.758 1.819.2 2.394.39 3.902 1.285.974.578 2.804 1.376 4.069 1.772 2.71.85 4.024 1.737 5.921 3.997.769.915 2.369 2.377 3.556 3.25 3.026 2.222 3.294 2.79 4.29 9.076.435 2.74.79 5.372.79 5.85 0 .579.364 1.452 1.1 2.637.603.974 1.232 2.16 1.396 2.635.473 1.37.363 3.622-.256 5.24-.51 1.33-.53 1.593-.254 3.202.165.964.3 2.751.3 3.97 0 1.22.13 3.153.29 4.295.273 1.958.252 2.197-.367 4.191-.36 1.163-.83 3.204-1.043 4.535-.542 3.394-1.117 4.917-2.827 7.486-.465.698-1.436 2.984-2.156 5.08-3.043 8.843-3.03 8.823-9.608 15.413-4.75 4.76-5.1 5.052-7.26 6.087-3.76 1.802-6.07 1.636-8.191-.587-.755-.79-2.365-3.805-2.366-4.428 0-.153-.203-.462-.452-.687-.417-.377-.595-.373-2.253.054-.99.254-2.47.77-3.29 1.145-1.896.868-3.195 1.041-4.998.667-1.3-.27-1.667-.236-3.834.354-3.688 1.005-5.122 1.083-7.226.393-.973-.319-1.952-.51-2.175-.424-.645.248-1.353 1.624-1.824 3.544-.484 1.976-1.468 3.338-2.82 3.903-1.246.52-4.086.65-5.502.252zm4.576-1.954c1.617-.613 2.292-2 1.6-3.292-.208-.39-.063-.737.762-1.825 1.255-1.653 1.705-2.857 1.266-3.385-.53-.64-.977-.415-1.158.581-.43 2.367-2.095 4.23-4.044 4.522-2.132.32-3.961-.31-3.604-1.24.118-.309.522-.353 2.176-.24l2.03.14.779-.852c1.494-1.636 1.566-3.696.184-5.251-.656-.738-2.13-.77-3.028-.063-.737.58-2.268.668-3.213.186-1.372-.7-1.299-2.915.15-4.518 1.095-1.212 2.725-1.764 5.205-1.764h1.727l.513-1.006c.633-1.242.639-1.999.02-2.741-.583-.698-1.927-.757-4.04-.178-2.784.764-3.841 1.388-4.484 2.645-.324.634-1 1.546-1.501 2.028-1.074 1.03-1.147 1.704-.375 3.448.553 1.251.583 3.421.054 3.95-.133.133-.755.265-1.383.292-1.005.044-1.324-.091-2.682-1.136-2.08-1.6-5.528-5.325-6.183-6.678-.566-1.17-.692-3.09-.466-7.101l.115-2.032.934.028c1.322.04 3.546 1.643 4.895 3.527 1.236 1.728 2.12 2.597 3.447 3.39 1.224.73 1.458.695 1.868-.278a4.663 4.663 0 0 1 2.13-2.33c1.135-.588 5.25-1.67 6.345-1.67 1.07 0 1.311-.269 1.311-1.464 0-.363-.137-1.039-.305-1.503-.257-.71-.43-.844-1.098-.844-.437 0-1.643-.295-2.68-.656-1.202-.42-2.69-.708-4.106-.797-2.377-.15-3.074-.496-2.47-1.223.242-.293.593-.35 1.397-.23.673.101 1.138.057 1.246-.117.095-.153.39-.279.656-.279s.62-.257.784-.571c1.028-1.96 3.673-3.967 4.831-3.664.446.116.475-.075.472-3.09-.003-2.688-.103-3.529-.612-5.122-.335-1.048-.691-2.848-.792-4l-.182-2.095h-.883c-.486 0-1.586.177-2.444.392-1.417.355-1.714.556-3.22 2.185l-1.66 1.795-2.659.715a162 162 0 0 0-4.055 1.144c-2.374.727-2.901.732-4.402.045l-1.386-.635-.442.98c-.243.54-.998 1.507-1.678 2.15-1.252 1.186-1.594 2.162-.903 2.583 1.172.716 1.49 2.615.844 5.041-.465 1.746-.852 2.401-1.419 2.401-.69 0-.745-.456-.22-1.835.453-1.195.613-3.319.308-4.113-.085-.22-.372-.402-.637-.402-.434 0-.467.138-.325 1.343.124 1.06.071 1.413-.252 1.682-1.263 1.048-1.683-2.5-.534-4.511.348-.608.632-1.227.632-1.375 0-.149.686-.985 1.524-1.857 1.453-1.514 1.524-1.647 1.524-2.874 0-1.406-.379-1.845-1.905-2.205-1.178-.278-2.159-.846-2.159-1.25 0-.2.33-.886.734-1.522 1.255-1.979 2.095-5.073 2.008-7.398l-.075-2.004-.952-.465c-.524-.256-.953-.583-.953-.726 0-.143.558-1.094 1.239-2.112 1.309-1.957 1.978-3.99 1.691-5.133-.094-.374-.583-1.07-1.088-1.545-.737-.696-.864-.948-.647-1.284.339-.526 1.043-.409 1.814.302.717.66 1.563 2.245 1.563 2.926 0 .94-1.003 3.727-1.783 4.958l-.786 1.238.506.54c.746.796 1.047 1.79 1.047 3.449 0 1.679-.959 5.257-1.914 7.142l-.638 1.26.657.25c.362.137.773.25.913.25s.625.282 1.079.628l.824.63.548-1.129c.618-1.272 1.616-1.896 3.865-2.415.769-.178 1.74-.504 2.16-.726.725-.384.734-.407.183-.492-.318-.05-1.368.033-2.335.183-2.599.403-3.056.367-3.056-.242 0-.714.856-.98 3.763-1.169 1.867-.121 2.848-.06 4.068.254.885.227 2.201.413 2.926.413 1.197 0 1.435-.103 2.619-1.139 1.721-1.505 2.167-1.646 4.42-1.398 1.04.114 1.922.175 1.962.135.04-.04-.102-1.258-.315-2.708-.732-4.966-1.155-9.238-1.155-11.664v-2.426l-1.206-.402a41.296 41.296 0 0 1-2.73-1.061c-2.105-.912-3.16-.867-5.098.216-1.884 1.054-2.443 1.093-3.793.261-2.362-1.455-4.2-.2-4.97 3.393-.274 1.278-.652 1.671-1.249 1.302-.461-.285-.153-2.02.696-3.91.521-1.163.931-1.667 1.808-2.223l1.133-.718-.062-1.718c-.034-.945-.101-1.756-.148-1.804-.254-.253-2.416 1.023-2.91 1.717-.61.857-1.591 1.006-1.733.262-.136-.713 2.063-2.708 3.4-3.086 1.095-.31 1.242-.438 1.403-1.228.1-.486.435-1.055.746-1.265.31-.21.862-.706 1.225-1.103 1.926-2.106 1.608-1.945 3.841-1.945 1.133 0 2.289-.122 2.568-.271.37-.198.607-.19.872.03.543.451.453.702-.46 1.277-.686.432-1.124.502-2.581.409-1.623-.104-1.8-.064-2.35.529-.326.352-.594.737-.594.854 0 .117-.407.472-.906.788l-.906.575-.097 2.595-.098 2.594 1.194 1.024c.657.563 1.433 1.024 1.725 1.025.292 0 1.15-.34 1.905-.756 1.186-.654 1.641-.758 3.326-.762 1.727-.004 2.092.082 3.175.753.673.417 1.577.828 2.01.913l.787.155.173-1.865c.24-2.586.597-3.777 1.387-4.621 1.418-1.518 3.922-2.857 4.747-2.54.52.199.47 1.09-.07 1.261-1.388.439-2.401 1.016-3.153 1.796l-.848.879.633.516c.864.705 2.434.529 4.633-.52 1.292-.618 1.9-1.094 2.49-1.951.768-1.116.807-1.639.123-1.639-.546 0-1.91-1.266-1.91-1.773 0-.724.685-.798 1.454-.158.804.67 2.766 1.175 4.261 1.096.862-.045 1.028.028 1.093.485.082.577-.483.848-1.783.855-.536.003-.913.302-1.684 1.337-1.4 1.88-1.97 2.347-3.969 3.254-1.546.7-1.963.784-3.424.684-.914-.062-1.863-.2-2.107-.307-.416-.18-.444.16-.44 5.232.004 3.06.164 6.753.368 8.472.608 5.13 1.204 9.392 1.33 9.525.066.07 1.739.093 3.717.051 3.336-.07 3.68-.034 4.74.508 1.248.638 1.642 1.61.902 2.225-.217.18-.394.464-.394.632 0 .585-1.225 1.451-2.827 2-1.601.55-1.617.564-2.25 2.123-.753 1.852-1.392 2.622-2.177 2.622-.57 0-.571.012-.432 3.111.082 1.836.255 3.188.42 3.298.406.27 2.13.237 2.303-.043.08-.13.781-.528 1.557-.883 1.323-.606 1.46-.755 2.217-2.428.652-1.439.918-1.783 1.38-1.784.766-.002.746.677-.074 2.41-.729 1.54-1.977 2.756-3.424 3.335-.54.216-1.167.676-1.394 1.023-.392.598-.381.673.201 1.44.338.444.82 1.208 1.071 1.697.451.88 1.696 2.55 2.864 3.844l.604.67 1.568-.484c2.407-.74 6.001-1.49 7.144-1.49.566 0 2.212.287 3.659.637l2.63.638 1.846-.9c1.84-.897 1.846-.904 1.977-2.064.072-.64.35-1.457.618-1.816.521-.697 2.507-1.52 3.76-1.56 1.23-.038 1.527-.343 1.046-1.077-.347-.53-.735-.662-2.757-.94-3.592-.494-3.669-.517-4.52-1.381-.745-.757-.785-.89-.623-2.078.525-3.857.615-4.657.623-5.525.006-.658-.103-.952-.353-.952-.2 0-.685-.27-1.08-.6-.395-.33-.983-.684-1.306-.785-.324-.101-.98-.528-1.46-.95-.478-.42-1.714-1.079-2.745-1.463-1.72-.642-3.97-2.105-3.97-2.583 0-.11.559-.758 1.241-1.44.916-.916 1.565-1.323 2.477-1.553 1.436-.363 3.57-1.313 5.108-2.272 1.074-.67 1.078-.68 1.016-2.07l-.063-1.397-1.524.029c-.838.016-2.845.117-4.46.226-3.246.217-4.304.019-5.421-1.017-1.106-1.024-.884-1.648 1.853-5.226.53-.695 1.299-1.118 5.033-2.779 1.895-.842 2.51-1.008 3.238-.87l.9.168v-1.933c0-1.063-.094-1.933-.21-1.933-.115 0-.486.296-.825.659-.928.993-1.845 1.372-3.334 1.377-.74.002-2.089.155-2.997.34-.908.185-1.88.342-2.159.35-.28.007-1.241.323-2.137.702-2.163.915-4.327.84-5.69-.2-1.077-.822-1.319-.84-2.402-.18-1.144.698-3.343.684-4.818-.03-.94-.456-1.098-.638-1.032-1.202.089-.762.158-.789 4.014-1.575 2.974-.607 3.826-.654 6.657-.368 2.42.245 3.095-.08 3.34-1.607.203-1.27.754-1.504 1.691-.715.502.422 1.275.686 2.577.88l1.86.275 1.371-.94c1.674-1.15 3.586-3.427 3.586-4.271v-.616l-1.267.642c-.984.499-1.404.911-1.878 1.846-1.747 3.44-3.708 3.48-2.975.062.153-.713.278-1.337.278-1.387 0-.05-.22-.033-.49.037-.545.143-3.047-1.116-4.163-2.094-.76-.666-.825-1.451-.131-1.585.23-.044.8.254 1.267.662.468.408 1.45 1.045 2.184 1.415.733.37 1.342.814 1.354.986.011.173.157.005.325-.373.707-1.592 2.38-2.742 3.991-2.742.667 0 .764-.073.595-.445-.111-.244-.21-.794-.218-1.22l-.015-.776-2.92.082c-1.607.045-3.493.195-4.192.334-.846.167-1.566.165-2.157-.005-1.353-.391-2.756-.31-4.706.273-.975.291-2.367.61-3.093.71-.726.1-1.535.376-1.798.614-.263.238-.812.433-1.22.434-.408 0-1.2.283-1.758.627-1.284.791-2.443.8-4.094.031-1.376-.64-2.128-1.454-2.13-2.303-.006-2.075-1.335-3.9-3.003-4.123-1.075-.144-1.13-.115-2.47 1.302-1.365 1.443-1.376 1.449-2.522 1.277-2.074-.311-3.316.546-8.254 5.692-2.377 2.477-4.645 4.956-5.04 5.508-.396.553-.976 1.919-1.29 3.037-.313 1.117-1.014 2.775-1.557 3.683a41.074 41.074 0 0 0-1.788 3.422l-.801 1.77.156 5.088c.225 7.374.447 9.505 1.102 10.616.302.512.627 1.616.721 2.455.163 1.434.123 1.602-.675 2.845-.679 1.058-.869 1.645-.951 2.94-.163 2.558.296 3.727 2.293 5.839 1.202 1.272 1.728 2.025 1.728 2.474 0 1.34 1.287 4.043 2.425 5.096 1.433 1.325 2.072 2.63 2.392 4.884.37 2.618 2.123 9.407 2.738 10.61.724 1.417 1.258 1.828 3.266 2.517 5.224 1.791 7.09 2.52 8.205 3.207 1.032.635 1.281.941 1.512 1.856.357 1.418 1.133 2.387 2.148 2.68 1.132.328 3.811.333 4.666.01zm-16.492-28.921c-1.33-.186-1.86-.549-1.638-1.124.12-.316.621-.356 3.018-.241l2.873.136 1.27-.855c1.426-.96 2.349-2.443 3.451-5.546.37-1.043.857-2.012 1.081-2.153 2.018-1.273-.59 6.264-2.834 8.19-1.901 1.632-3.854 2.062-7.221 1.593zm29.653-.521c-2.19-.476-4.699-1.918-4.699-2.7 0-.561 2.509-3.121 3.608-3.682.52-.265 1.213-.481 1.54-.481 1.036 0 4.828 1.055 6.282 1.747 1.285.612 1.403.74 1.475 1.606.072.863-.01.996-1.01 1.626-2.73 1.724-5.09 2.341-7.196 1.884zm-30.543-8.903c-.616-.248-.759-.863-.27-1.165.165-.102.908-.158 1.65-.123.987.046 1.71-.102 2.685-.548 1.465-.671 1.967-.65 1.967.08 0 1.21-4.287 2.457-6.032 1.756zm-12.096-14.605c-.088-.228-.16-1.217-.16-2.197 0-1.667-.051-1.83-.789-2.52-1.161-1.085-.581-1.978.803-1.237.913.488 1.338 1.755 1.361 4.057.02 2.015-.014 2.164-.517 2.235-.318.046-.604-.093-.698-.338zm-.731-9.792c-.704-.41-.56-1.93.33-3.482.856-1.492 1.65-1.959 2.673-1.57.868.33.73 1.107-.216 1.216-.553.064-.837.35-1.346 1.354-.508 1.002-.581 1.35-.345 1.634.23.278.227.448-.017.742-.368.443-.481.455-1.08.106zm3.8-8.52c-.7-.7.452-3.448 1.51-3.601.785-.114.974.673.327 1.361-.295.314-.555.954-.578 1.421-.033.645-.168.868-.561.925-.285.04-.6-.007-.699-.106zm36.267-4.162c-.295-.476.152-1.245 1.321-2.274.905-.797 1.37-1.025 2.081-1.022 1.145.005 1.63.3 1.509.916-.067.344-.32.482-.904.493-1.064.02-1.87.471-2.488 1.393-.5.747-1.219.98-1.52.494zm-15.575-1.028c-1.005-.403-.6-1.108.72-1.255.99-.11 1.15-.212 1.215-.77.05-.43-.232-1.036-.855-1.835-.967-1.242-1.019-1.967-.14-1.967.585 0 2.267 2.226 2.478 3.28.373 1.864-1.548 3.296-3.418 2.547zm-8.527-1.405c-.233-.607.043-.866.923-.866.437 0 1.673-.36 2.749-.8 1.791-.732 2.017-.908 2.694-2.095.46-.808.938-1.325 1.268-1.373.672-.098.984.644.503 1.193-.197.224-.595.88-.885 1.457-.473.942-.755 1.145-2.722 1.969-2.413 1.01-4.26 1.22-4.53.515zm5.265-6.288c-.117-.205-.498-.411-.847-.46-.747-.103-.87-.9-.204-1.32.322-.203.663-.161 1.35.167.77.366.906.551.84 1.13-.09.77-.804 1.073-1.14.483zm48.126 80.235c2.181-1.062 2.605-1.41 6.728-5.525 6.211-6.198 6.856-7.093 8.077-11.21.297-1 .984-2.99 1.528-4.423.543-1.434.988-2.858.988-3.167 0-.315.483-1.063 1.106-1.712 1.353-1.408 2.338-3.939 2.583-6.64.187-2.063.619-3.804 1.24-5.007.473-.913.523-2.254.123-3.267-.167-.424-.264-2.128-.237-4.185.04-3.06-.017-3.592-.48-4.499-.713-1.396-.661-2.077.243-3.215.929-1.169 1.123-1.853.907-3.203a6.397 6.397 0 0 0-2.098-3.777l-.96-.844-.022-2.307c-.012-1.27-.22-3.279-.462-4.466a56.388 56.388 0 0 1-.67-4.28c-.127-1.166-.415-2.402-.641-2.747-.226-.344-1.347-1.238-2.49-1.987-1.922-1.258-3.53-2.842-4.968-4.897-.746-1.067-1.407-1.384-4.35-2.09-2.034-.49-2.627-.754-3.78-1.691-1.61-1.31-2.34-1.543-3.504-1.123-1.009.365-2.097.178-2.974-.512-.815-.642-2.544-1.248-3.553-1.247-.437.001-1.149.218-1.583.483-.513.313-.912.402-1.143.256-.928-.588-3.743.268-4.3 1.308-.139.261-.245 1.25-.234 2.198.01.948.007 1.895-.008 2.105-.015.21.27 1.352.634 2.54.364 1.187.784 3.13.935 4.318.401 3.166 1.187 3.83 2.432 2.055.843-1.201 1.67-1.728 3.064-1.95.736-.118 1.226-.057 1.628.204.317.205 1.123.446 1.793.536 1.045.14 1.367.068 2.286-.514a5.284 5.284 0 0 1 2.339-.776c1.09-.085 1.367-.007 1.954.55.376.358.785.831.908 1.051.124.22.655.498 1.18.617.876.197 1.04.141 1.932-.665 1.125-1.017 2.33-1.258 2.487-.498.055.266-.083.585-.305.71-.354.198-.36.298-.05.787.196.308.492 1.245.657 2.084.35 1.767 1.59 3.887 2.377 4.061.299.067 1 .152 1.56.189.803.053 1.031.176 1.09.588.055.38-.151.62-.762.89-.942.414-1.998 2.229-2.034 3.497-.013.451.367 1.424.935 2.395.822 1.405 1.239 1.81 2.962 2.881 1.532.952 1.99 1.366 1.94 1.752-.108.81-.825.733-2.205-.236-.707-.498-1.374-.904-1.482-.904-.422 0-1.606-1.342-2.521-2.856-1.185-1.961-1.297-3.695-.355-5.509.558-1.076.564-1.14.126-1.46-.252-.185-.522-.336-.6-.336-.466-.001-1.895-2.735-2.34-4.476-.283-1.1-.56-2.047-.617-2.105-.057-.057-.485.102-.952.353-.646.348-1.126.415-2.01.283-1.102-.166-1.376-.35-2.84-1.914-.65-.694-1.001-.662-2.599.24-1.091.616-1.647.762-2.902.762-.981 0-1.81-.153-2.256-.416-1.185-.7-2.406-.3-3.196 1.047-.706 1.205-1.931 1.838-2.938 1.518l-.545-.172.162 5.17c.415 13.33.44 13.704.886 13.582 1.224-.335 5.242-.423 6.348-.14.746.191 1.749.242 2.627.132 1.202-.15 1.679-.384 3.11-1.524 3.397-2.708 7.24-3.547 9.922-2.167 1.133.583 1.3.784 1.691 2.032.24.761.442 2.134.45 3.05.013 1.42-.094 1.836-.73 2.84-.41.648-1.028 1.361-1.37 1.586-.344.225-.684.632-.755.905-.181.692-1.234.641-2.405-.116-1.464-.946-2.781-1.05-5-.39l-1.903.564-2.229-1.095-2.23-1.095-3.547.048c-1.95.027-3.649.15-3.774.275-.133.134-.045 1.238.214 2.676.414 2.298.416 2.69.028 6.321-.227 2.13-.413 4.005-.413 4.169 0 .534 1.097.907 3.635 1.237 1.371.179 2.707.393 2.969.476.555.176 2.032 2.302 2.032 2.925 0 .493-1.416 1.174-2.921 1.406-3.259.501-3.583 1.04-2.777 4.608l.398 1.762 1.57-.33c3.884-.815 7.974-.911 9.61-.225.348.146.436-.03.526-1.049.059-.673.188-1.4.286-1.615.132-.287-.048-.473-.68-.701-1.243-.45-1.677-1.055-2.192-3.057-.795-3.093-1.15-3.588-3.44-4.8-2.236-1.185-4.006-2.885-3.885-3.733.1-.7 1.12-.857 1.327-.204.252.794 1.456 1.774 3.582 2.915 2.306 1.238 2.835 1.96 3.58 4.892.248.977.61 1.968.802 2.202.193.233.942.562 1.664.73.722.169 1.792.521 2.378.783 1.232.55 3.688.63 4.65.152.349-.173.844-.743 1.1-1.266.52-1.062 1.45-1.469 2.108-.923.335.278.379.66.246 2.124-.088.982-.264 2.986-.39 4.453-.127 1.466-.351 3.057-.499 3.534-.147.477-.199 1.144-.114 1.481.12.482-.062.842-.848 1.673a76.657 76.657 0 0 0-2.308 2.605c-.854 1.011-1.833 1.827-2.824 2.356-.835.444-1.737 1.11-2.006 1.479-.324.445-.629.616-.906.51-.446-.171-.578-1.317-.18-1.564.131-.08.401-.459.6-.84.2-.381.55-1.036.777-1.455.794-1.46.345-3.823-1.081-5.691a20.187 20.187 0 0 1-1.295-2.006c-1.04-1.868-1.82-2.142-5.533-1.938-1.716.095-3.888.358-4.826.585-1.706.413-1.706.414-1.786 1.372-.073.886-.01.988.818 1.334 1.069.447 2.07.476 3.169.093 1.158-.404 2.796-.08 4.359.863 1.659 1.001 1.997 1.777 1.36 3.12-.769 1.62-1.578 1.93-4.8 1.838l-2.794-.078-.127 1.983c-.11 1.7-.212 2.048-.72 2.43l-.594.448.643 2.347c.99 3.614 2.549 5.619 4.368 5.619.432 0 1.832-.51 3.112-1.133zm-6.28-3.4c-.299-.56.086-1.055.819-1.055.266 0 1.415-.27 2.552-.6 2.197-.638 4.801-1.178 5.677-1.178.513 0 .959.614.723.995-.112.18-1.728.568-3.762.903-.525.087-1.838.438-2.918.78-2.352.747-2.763.768-3.091.154zm14.644-22.703c-1.776-1.46-1.532-5.702.435-7.55.723-.679 1.872-.621 2.267.115.15.279.534.914.851 1.41.65 1.016.716 1.66.275 2.7-.167.394-.538 1.401-.825 2.24-.495 1.443-.57 1.527-1.412 1.593-.623.049-1.099-.103-1.591-.508zm8.457.322c-.312-.198-.323-.378-.064-1.094.456-1.26.38-3.258-.148-3.889-.338-.405-.655-.502-1.362-.42-.834.098-.985.016-1.583-.865-.363-.535-.66-1.108-.66-1.273 0-.165-.344-.624-.763-1.02-.952-.899-.989-1.816-.105-2.645.362-.338.813-.987 1.003-1.441.425-1.014 1.388-1.176 1.388-.233 0 .326.343 1.66.762 2.964.42 1.303.762 2.58.762 2.836 0 .325.189.466.625.466.467 0 .786.276 1.27 1.101.819 1.399.872 3.3.132 4.75-.543 1.066-.663 1.138-1.257.763zm.778-8.886c-.225-.139-.261-.636-.131-1.79.169-1.49.14-1.626-.428-2.059-.486-.37-.553-.55-.336-.902.426-.689.805-.687 1.499.007.54.54.642.876.639 2.114-.005 2.309-.403 3.149-1.243 2.63zm-13.847-5.99c-1.449-.399-2.794-1.578-2.543-2.231.222-.578.916-.543 1.444.073.236.276.944.632 1.572.79 1.384.349 1.87.822 1.412 1.375-.364.438-.258.439-1.885-.007zm13.832-2.136c-.144-.27-.263-.787-.263-1.15 0-.457-.368-1.004-1.206-1.79-.664-.623-1.293-1.134-1.397-1.136-.105-.002-.19-.29-.19-.64 0-1.012.959-.779 2.476.604 1.186 1.081 1.365 1.38 1.608 2.692.218 1.18.205 1.52-.065 1.69-.503.319-.673.271-.963-.27zm-2.324-16.934c-.504-.21-1.047-.666-1.206-1.015-.455-.997-.351-2.494.223-3.224 1.02-1.296 3.677-1.57 3.505-.361-.062.438-.277.581-.968.647-1.206.114-1.525.443-1.525 1.573 0 .846.094.993.791 1.236.436.151.882.22.993.15.369-.227 1.01.179 1.01.64 0 .827-1.293.99-2.823.354zm-22.176-1.028c-1.343-.699-3.96-3.142-3.953-3.691.013-1.07 1.04-1.264 3.806-.72 2.976.585 4.318 1.553 4.318 3.114 0 .543-.118 1.209-.263 1.48-.392.733-2.319.643-3.908-.183zm22.395-5.486c-.066-.175-.03-.546.082-.825.837-2.118-.307-4.339-3.361-6.52-.556-.398-.567-.452-.168-.861.401-.413.486-.401 1.524.21 1.242.733 2.161 1.666 2.963 3.01.6 1.006.758 3.448.3 4.652-.26.684-1.128.9-1.34.334zm-6.126-9.215c-.088-.228-.16-.792-.16-1.252 0-1.117-.393-1.385-2.588-1.769-2.045-.357-4.367-1.402-4.628-2.085-.097-.253-.006-.6.214-.82.34-.34.432-.339.835.015.862.758 2.49 1.403 3.967 1.57 1.952.22 2.917.749 3.377 1.85.537 1.286.374 2.73-.319 2.83-.318.045-.604-.094-.698-.339zm-22.997-2.76c-.508-.612.026-1.08 1.41-1.236.89-.1 1.311-.306 1.757-.858.554-.687.61-.703 1.029-.291.954.936-.508 2.335-2.764 2.644-.828.114-1.176.05-1.432-.258zm8.699-.55c-.238-.62.086-2.717.579-3.75.306-.641.614-.933.983-.933.296 0 .926-.4 1.4-.89.714-.736 1.044-.888 1.924-.888 1.153 0 1.792.488 1.53 1.17-.12.314-.353.377-.95.257-.664-.132-.95-.015-1.775.731-.541.49-1.137.89-1.324.89-.44 0-.929 1.084-.929 2.06 0 1.419-1.038 2.395-1.438 1.352zm-6.698-3.55c-.274-.33-.19-.531.524-1.269 1.153-1.19 1.523-1.258 3.405-.632 1.644.547 2.045.918 1.664 1.535-.174.28-.48.26-1.74-.122l-1.528-.463-.797.671c-.925.779-1.089.809-1.528.28zm-5.062 74.075c1.184-.445 1.762-.92 3.657-3.007 1.238-1.363 2.462-2.582 2.721-2.708.747-.364.539-2.504-.335-3.442-.272-.292-.608-.853-.745-1.248-.32-.918-1.208-1.562-3.309-2.4-2.242-.896-4.61-1.435-6.317-1.44-1.433-.004-4.611.532-5.969 1.005-.419.147-1.43.448-2.248.67-.817.223-1.69.61-1.941.86-.577.577-1.018 2.605-1.018 4.684 0 1.41.103 1.754.826 2.769 1.539 2.16 2.855 3.665 3.62 4.14 1.537.956 8.624 1.031 11.058.117zm-12.776-7.034c-.688-.687.287-1.345 3.595-2.424 1.919-.627 2.535-.701 6.175-.746 4.312-.054 5.041.116 4.182.974-.382.382-.99.444-4.434.456-3.881.014-4.05.037-6.15.844-2.61 1.003-3.125 1.14-3.368.896z" transform="translate(-58.577 -64.416)"/>
</svg>